<svg width="750" height="680" viewBox="0 0 750 680" fill="none" xmlns="http://www.w3.org/2000/svg">
<path opacity="0.1" d="M620.572 654.952C718.636 671.984 757.368 634.843 736.77 543.529C716.171 452.215 697.05 386.033 679.407 344.985C661.764 303.936 651.829 231.602 649.601 127.981C647.373 24.3612 596.907 -12.4264 498.202 17.6187C399.497 47.6637 322.503 87.4221 267.22 136.894C211.937 186.365 145.563 248.242 68.0983 322.524C-9.36645 396.806 -17.7588 478.308 42.9211 567.029C103.601 655.751 190.531 688.327 303.709 664.758C416.888 641.188 522.509 637.919 620.572 654.952Z" fill="#407BFF"/>
<path d="M603.189 83.7791H404.069V241.064H603.189V83.7791Z" fill="#263238"/>
<path d="M526.223 171.159H462.27V178.32H526.223V171.159Z" fill="#407BFF"/>
<path d="M537.809 151.224H480.62V158.385H537.809V151.224Z" fill="#FFD200"/>
<path d="M534.812 206.647H504.978V213.808H534.812V206.647Z" fill="#FFD200"/>
<path d="M556.832 188.457H480.62V195.618H556.832V188.457Z" fill="#407BFF"/>
<path d="M467.208 188.457H438.544V195.618H467.208V188.457Z" fill="white"/>
<path d="M495.754 207.262H467.09V214.423H495.754V207.262Z" fill="white"/>
<path d="M448.86 171.159H420.196V178.32H448.86V171.159Z" fill="white"/>
<path d="M417.102 99.2131C418.964 99.2131 420.475 97.703 420.475 95.8403C420.475 93.9776 418.964 92.4676 417.102 92.4676C415.239 92.4676 413.729 93.9776 413.729 95.8403C413.729 97.703 415.239 99.2131 417.102 99.2131Z" fill="white"/>
<path d="M427.14 99.2131C429.003 99.2131 430.513 97.703 430.513 95.8403C430.513 93.9776 429.003 92.4676 427.14 92.4676C425.278 92.4676 423.768 93.9776 423.768 95.8403C423.768 97.703 425.278 99.2131 427.14 99.2131Z" fill="#407BFF"/>
<path d="M436.602 99.2131C438.464 99.2131 439.975 97.703 439.975 95.8403C439.975 93.9776 438.464 92.4676 436.602 92.4676C434.739 92.4676 433.229 93.9776 433.229 95.8403C433.229 97.703 434.739 99.2131 436.602 99.2131Z" fill="#FFD200"/>
<path d="M448.86 116.728H420.196V123.889H448.86V116.728Z" fill="white"/>
<path d="M467.208 134.62H438.544V141.781H467.208V134.62Z" fill="white"/>
<path d="M537.809 134.62H480.62V141.781H537.809V134.62Z" fill="#FFD200"/>
<path d="M467.208 151.224H438.544V158.385H467.208V151.224Z" fill="white"/>
<path d="M519.379 116.728H460.326V123.889H519.379V116.728Z" fill="#407BFF"/>
<path d="M573.633 116.728H531.718V123.889H573.633V116.728Z" fill="#407BFF"/>
<path d="M496.794 329.726C496.794 329.726 560.496 305.461 569.287 357.88C578.078 410.299 560.146 468.74 560.146 468.74H456.406L496.794 329.726Z" fill="#FFD200"/>
<path d="M445.686 330.633C445.686 330.633 422.787 328.93 418.281 364.806C413.775 400.682 421.458 450.562 421.458 450.562L386.932 465.195L388.671 471.685H437.927L453.056 415.81L445.686 330.633Z" fill="#407BFF"/>
<path opacity="0.46" d="M445.686 330.633C445.686 330.633 422.787 328.93 418.281 364.806C413.775 400.682 421.458 450.562 421.458 450.562L386.932 465.195L388.671 471.685H437.927L453.056 415.81L445.686 330.633Z" fill="white"/>
<path d="M453.13 281.407C453.13 281.407 452.407 294.897 455.463 303.744C455.762 304.599 456.255 305.395 456.913 306.086C457.571 306.777 458.382 307.351 459.299 307.773C460.215 308.195 461.22 308.457 462.255 308.546C463.291 308.634 464.336 308.546 465.332 308.288C470.511 306.906 476.996 303.744 478.443 296.558L482.572 284.549C483.108 282.081 482.739 279.531 481.514 277.251C480.29 274.971 478.271 273.073 475.737 271.819C466.661 266.715 453.084 273.18 453.13 281.407Z" fill="#F4A28C"/>
<path d="M481.329 290.946L487.22 334.028L458.566 335.029L465.794 303.286L481.329 290.946Z" fill="#F4A28C"/>
<path d="M456.585 281.793C461.508 281.794 466.414 281.31 471.202 280.35C469.867 282.209 469.212 284.354 469.317 286.521C469.422 288.689 470.282 290.783 471.792 292.545C473.219 294.272 475.317 295.531 477.728 296.107C480.139 296.684 482.715 296.543 485.016 295.708L483.93 278.59C483.872 276.133 483.023 273.734 481.473 271.647C479.923 269.56 477.729 267.861 475.122 266.731C472.828 265.754 470.462 264.902 468.038 264.181C462.063 262.402 453.586 265.999 448.155 262.856C447.608 262.541 446.972 262.351 446.31 262.304C445.648 262.257 444.983 262.355 444.38 262.588C443.778 262.821 443.258 263.182 442.872 263.635C442.486 264.087 442.248 264.616 442.18 265.169C441.496 270.407 443.007 278.551 451.626 281.101C453.216 281.577 454.896 281.811 456.585 281.793Z" fill="#263238"/>
<path d="M470.688 292.694C470.688 292.694 470.688 287.404 475.108 287.648C479.527 287.892 479.899 295.522 473.782 296.458L470.688 292.694Z" fill="#F4A28C"/>
<path d="M453.535 289.844L449.105 295.456C448.851 295.774 448.697 296.141 448.657 296.523C448.618 296.905 448.694 297.289 448.879 297.639C449.064 297.99 449.351 298.295 449.715 298.527C450.078 298.759 450.506 298.91 450.957 298.965L457.465 299.764L453.535 289.844Z" fill="#F4A28C"/>
<path opacity="0.31" d="M466.408 304.492C469.887 304.501 473.291 303.623 476.2 301.967C476.2 301.967 475.8 309.832 464.077 315.191L466.408 304.492Z" fill="#F4A28C"/>
<path d="M445.921 330.89C445.921 330.89 498.546 315.406 516.527 330.89C534.508 346.374 496.785 490.421 496.785 490.421L441.359 487.735C441.359 487.735 392.864 345.694 445.921 330.89Z" fill="#407BFF"/>
<path d="M644.152 480.142H140.699V599.42H644.152V480.142Z" fill="#C9C9C9"/>
<path d="M644.152 468.379H140.699V489.902H644.152V468.379Z" fill="#E6E6E6"/>
<path d="M458.005 456.457C458.005 456.457 414.702 443.921 419.899 468.359H458.005V456.457Z" fill="#F4A28C"/>
<path d="M291.384 250.34H176.669V329.21H291.384V250.34Z" fill="#FFD200"/>
<path d="M218.604 305.248C218.005 305.251 217.424 305.048 216.958 304.673L199.759 291.084C199.446 290.838 199.192 290.523 199.018 290.164C198.843 289.805 198.753 289.411 198.753 289.012C198.753 288.612 198.843 288.218 199.018 287.859C199.192 287.5 199.446 287.186 199.759 286.939L216.958 273.053C217.23 272.834 217.542 272.671 217.878 272.573C218.213 272.475 218.564 272.444 218.911 272.482C219.259 272.52 219.595 272.625 219.901 272.793C220.208 272.961 220.478 273.187 220.697 273.46C220.916 273.732 221.079 274.045 221.177 274.38C221.275 274.715 221.306 275.066 221.268 275.413C221.23 275.761 221.124 276.097 220.957 276.403C220.789 276.71 220.562 276.98 220.29 277.199L205.69 288.942L220.27 300.467C220.559 300.683 220.802 300.955 220.982 301.267C221.163 301.58 221.278 301.925 221.321 302.283C221.363 302.642 221.333 303.005 221.23 303.351C221.128 303.697 220.957 304.018 220.726 304.296C220.471 304.608 220.146 304.857 219.778 305.023C219.409 305.188 219.007 305.265 218.604 305.248Z" fill="white"/>
<path d="M249.747 305.248C249.345 305.252 248.948 305.162 248.586 304.987C248.225 304.811 247.909 304.554 247.664 304.236C247.228 303.683 247.029 302.98 247.111 302.281C247.193 301.582 247.548 300.944 248.1 300.507L262.68 288.982L248.08 277.238C247.531 276.797 247.179 276.154 247.103 275.453C247.026 274.752 247.232 274.049 247.674 273.499C248.116 272.95 248.758 272.598 249.459 272.522C250.16 272.445 250.863 272.651 251.413 273.093L268.611 286.978C268.925 287.225 269.178 287.54 269.353 287.899C269.527 288.258 269.617 288.652 269.617 289.051C269.617 289.45 269.527 289.844 269.353 290.203C269.178 290.562 268.925 290.877 268.611 291.124L251.413 304.712C250.936 305.078 250.347 305.267 249.747 305.248Z" fill="white"/>
<path d="M226.956 305.248C226.58 305.245 226.208 305.164 225.865 305.01C225.227 304.716 224.732 304.182 224.486 303.524C224.241 302.866 224.266 302.138 224.556 301.499L237.073 274.065C237.365 273.423 237.9 272.923 238.56 272.676C239.22 272.429 239.952 272.454 240.594 272.746C241.235 273.038 241.735 273.573 241.982 274.233C242.23 274.893 242.205 275.625 241.913 276.267L229.376 303.701C229.165 304.165 228.824 304.558 228.395 304.832C227.965 305.107 227.466 305.251 226.956 305.248Z" fill="white"/>
<path d="M446.302 461.655H364.396V468.379H446.302V461.655Z" fill="#E6E6E6"/>
<path d="M412.048 308.188H239.503V427.872H412.048V308.188Z" fill="#E6E6E6"/>
<path opacity="0.08" d="M492.695 337.233C492.695 337.233 474.158 358.367 482.584 397.267C495.141 455.227 432.116 452.337 432.116 452.337L437.248 471.686L509.579 461.977L515.874 422.872L492.695 337.233Z" fill="black"/>
<path d="M309.786 378.619L291.259 468.379H382.924V456.457L337.101 453.522L333.193 378.619H309.786Z" fill="#C9C9C9"/>
<path d="M493.605 347.433C493.872 344.746 494.595 342.159 495.724 339.844C496.854 337.529 498.365 335.538 500.159 334.002C501.952 332.466 503.987 331.42 506.13 330.933C508.272 330.446 510.473 330.529 512.588 331.177C524.481 334.85 539.417 346.475 541.652 381.318C545.441 440.402 531.968 468.379 531.968 468.379H457.464V456.626L509.184 448.77C509.184 448.77 489.573 388.169 493.605 347.433Z" fill="#407BFF"/>
<path opacity="0.46" d="M493.605 347.433C493.872 344.746 494.595 342.159 495.724 339.844C496.854 337.529 498.365 335.538 500.159 334.002C501.952 332.466 503.987 331.42 506.13 330.933C508.272 330.446 510.473 330.529 512.588 331.177C524.481 334.85 539.417 346.475 541.652 381.318C545.441 440.402 531.968 468.379 531.968 468.379H457.464V456.626L509.184 448.77C509.184 448.77 489.573 388.169 493.605 347.433Z" fill="white"/>
<path opacity="0.58" d="M184.657 449.118C184.657 449.118 168.411 444.674 164.82 429.539C164.82 429.539 190.013 424.441 190.727 450.447L184.657 449.118Z" fill="#407BFF"/>
<path opacity="0.73" d="M186.661 447.491C186.661 447.491 175.294 429.539 185.292 412.738C185.292 412.738 204.454 424.917 195.944 447.531L186.661 447.491Z" fill="#407BFF"/>
<path d="M189.577 447.511C189.577 447.511 195.528 428.547 213.738 424.957C213.738 424.957 217.13 437.255 201.975 447.571L189.577 447.511Z" fill="#407BFF"/>
<path d="M177.793 447.075L181.086 469.629L201.835 469.728L204.91 447.194L177.793 447.075Z" fill="#263238"/>
</svg>
