<svg width="503" height="440" viewBox="0 0 503 440" fill="none" xmlns="http://www.w3.org/2000/svg">
<g opacity="0.1">
<path d="M327.563 4.69685C337.826 1.06852 348.708 -0.483509 359.576 0.13097C413.485 3.54241 447.418 50.7838 457.328 100.191C471.726 171.845 435.277 245.158 384.053 293.593C382.393 295.176 380.706 296.719 378.994 298.25C325.708 345.66 254.379 369.929 183.634 371.952C139.142 373.25 86.3494 358.19 56.9954 322.882C26.2924 285.979 33.1023 202.587 91.5639 198.695C115.379 197.1 137.586 205.752 160.519 210.499C192.312 217.088 226.919 210.707 253.004 190.925C304.889 151.635 258.193 79.8135 289.934 32.6759C298.715 19.6008 312.465 10.0021 327.563 4.69685Z" fill="#407BFF"/>
</g>
<path d="M251.5 439.221C390.4 439.221 503 432.647 503 424.538C503 416.429 390.4 409.855 251.5 409.855C112.6 409.855 0 416.429 0 424.538C0 432.647 112.6 439.221 251.5 439.221Z" fill="#F5F5F5"/>
<path d="M459.624 383.653C459.818 382.355 464.358 351.004 455.265 340.186C454.36 339.046 453.214 338.121 451.909 337.477C450.603 336.833 449.171 336.487 447.716 336.463C429.349 336.035 426.845 350.731 426.819 350.926L428.986 351.263C429.063 350.731 431.243 338.292 447.664 338.655C448.808 338.671 449.934 338.943 450.96 339.45C451.985 339.957 452.885 340.687 453.592 341.587C462.049 351.665 457.483 383.004 457.483 383.328L459.624 383.653Z" fill="#407BFF"/>
<path d="M460.726 382.226L462.919 382.148C462.919 381.863 462.192 353.287 476.266 347.385C490.067 341.613 496.281 353.494 496.527 354L498.486 353.014C498.421 352.872 491.131 338.746 475.423 345.374C459.961 351.847 460.687 380.98 460.726 382.226Z" fill="#407BFF"/>
<path d="M460.662 384.47C460.662 384.016 460.804 338.824 469.612 325.606C478.069 312.907 491.663 318.887 492.299 319.121L493.194 317.123C493.038 317.058 477.291 310.105 467.783 324.361C458.612 338.123 458.482 382.55 458.482 384.444L460.662 384.47Z" fill="#407BFF"/>
<path d="M445.083 337.553C445.083 337.553 453.099 340.51 450.712 347.476C448.326 354.441 422.993 365.934 422.993 365.934C422.993 365.934 412.369 356.205 422.124 340.38C431.878 324.555 444.862 332.559 445.083 337.553Z" fill="#407BFF"/>
<path d="M470.001 323.219C470.001 323.219 464.319 322.61 464.812 319.146C465.305 315.683 486.941 306.759 499.718 321.183C499.718 321.183 491.533 335.244 479.703 335.451C467.873 335.659 470.001 323.219 470.001 323.219Z" fill="#407BFF"/>
<path d="M475.903 346.399C475.903 346.399 472.011 343.234 476.214 341.691C480.417 340.147 501.248 340.575 501.456 361.147C501.456 361.147 477.239 365.182 474.216 357.334C471.194 349.486 475.903 346.399 475.903 346.399Z" fill="#407BFF"/>
<path opacity="0.2" d="M445.083 337.553C445.083 337.553 453.099 340.51 450.712 347.476C448.326 354.441 422.993 365.934 422.993 365.934C422.993 365.934 412.369 356.205 422.124 340.38C431.878 324.555 444.862 332.559 445.083 337.553Z" fill="black"/>
<path opacity="0.2" d="M470.001 323.219C470.001 323.219 464.319 322.61 464.812 319.146C465.305 315.683 486.941 306.759 499.718 321.183C499.718 321.183 491.533 335.244 479.703 335.451C467.873 335.659 470.001 323.219 470.001 323.219Z" fill="black"/>
<path opacity="0.2" d="M475.903 346.399C475.903 346.399 472.011 343.234 476.214 341.691C480.417 340.147 501.248 340.575 501.456 361.147C501.456 361.147 477.239 365.182 474.216 357.334C471.194 349.486 475.903 346.399 475.903 346.399Z" fill="black"/>
<path d="M440.777 425.615H478.367L482.414 384.47H436.729L440.777 425.615Z" fill="#407BFF"/>
<path opacity="0.5" d="M440.777 425.615H478.367L482.414 384.47H436.729L440.777 425.615Z" fill="white"/>
<path d="M434.719 388.997H484.425V379.917H434.719V388.997Z" fill="#407BFF"/>
<path opacity="0.2" d="M434.719 388.997H484.425V379.917H434.719V388.997Z" fill="white"/>
<path d="M398.231 396.118L360.86 392.447V339.913H346.047V392.421L308.573 396.118C306.776 396.295 305.109 397.134 303.896 398.472C302.683 399.809 302.011 401.55 302.01 403.356V408.972H404.846V403.356C404.847 401.541 404.168 399.792 402.944 398.452C401.72 397.113 400.038 396.28 398.231 396.118Z" fill="#263238"/>
<path opacity="0.2" d="M398.231 396.118L360.86 392.447V339.913H346.047V392.421L308.573 396.118C306.776 396.295 305.109 397.134 303.896 398.472C302.683 399.809 302.011 401.55 302.01 403.356V408.972H404.846V403.356C404.847 401.541 404.168 399.792 402.944 398.452C401.72 397.113 400.038 396.28 398.231 396.118Z" fill="white"/>
<path d="M305.914 425.628C311.266 425.628 315.604 421.289 315.604 415.938C315.604 410.587 311.266 406.249 305.914 406.249C300.563 406.249 296.225 410.587 296.225 415.938C296.225 421.289 300.563 425.628 305.914 425.628Z" fill="#263238"/>
<path d="M400.851 425.628C406.202 425.628 410.54 421.289 410.54 415.938C410.54 410.587 406.202 406.249 400.851 406.249C395.499 406.249 391.161 410.587 391.161 415.938C391.161 421.289 395.499 425.628 400.851 425.628Z" fill="#263238"/>
<path d="M343.505 304.424H363.416V345.841C363.416 347.262 362.851 348.625 361.847 349.629C360.842 350.634 359.479 351.198 358.059 351.198H348.862C347.441 351.198 346.079 350.634 345.074 349.629C344.069 348.625 343.505 347.262 343.505 345.841V304.424Z" fill="#263238"/>
<path opacity="0.3" d="M343.505 304.424H363.416V345.841C363.416 347.262 362.851 348.625 361.847 349.629C360.842 350.634 359.479 351.198 358.059 351.198H348.862C347.441 351.198 346.079 350.634 345.074 349.629C344.069 348.625 343.505 347.262 343.505 345.841V304.424Z" fill="white"/>
<path d="M388.865 222.329C388.865 222.329 391.693 292.374 372.184 304.424H394.456C394.456 304.424 411.708 280.57 406.83 222.329H388.865Z" fill="#263238"/>
<path opacity="0.3" d="M388.865 222.329C388.865 222.329 391.693 292.374 372.184 304.424H394.456C394.456 304.424 411.708 280.57 406.83 222.329H388.865Z" fill="white"/>
<path d="M402.031 309.794H302.256V301.116C302.256 299.396 302.94 297.747 304.156 296.53C305.372 295.314 307.022 294.631 308.742 294.631H395.546C397.266 294.631 398.915 295.314 400.132 296.53C401.348 297.747 402.031 299.396 402.031 301.116V309.794Z" fill="#263238"/>
<path d="M300.699 309.794H403.574C405.014 309.794 406.182 308.627 406.182 307.187V304.826C406.182 303.386 405.014 302.219 403.574 302.219H300.699C299.259 302.219 298.092 303.386 298.092 304.826V307.187C298.092 308.627 299.259 309.794 300.699 309.794Z" fill="#263238"/>
<path opacity="0.6" d="M300.699 309.794H403.574C405.014 309.794 406.182 308.627 406.182 307.187V304.826C406.182 303.386 405.014 302.219 403.574 302.219H300.699C299.259 302.219 298.092 303.386 298.092 304.826V307.187C298.092 308.627 299.259 309.794 300.699 309.794Z" fill="white"/>
<path d="M412.292 184.777H376.621C366.176 184.777 357.708 193.244 357.708 203.689V217.646C357.708 228.091 366.176 236.558 376.621 236.558H412.292C422.736 236.558 431.204 228.091 431.204 217.646V203.689C431.204 193.244 422.736 184.777 412.292 184.777Z" fill="#263238"/>
<path d="M268.427 127.548L261.306 108.778C261.306 108.778 264.367 105.951 262.266 103.084C260.165 100.217 247.038 92.1622 244.651 93.576C242.264 94.9899 236.933 100.334 239.813 103.304C242.693 106.275 255.378 111.217 255.378 111.217L261.682 135.862L268.427 127.548Z" fill="#F4A28C"/>
<path d="M318.146 163.232C318.146 163.232 285.718 156.577 282.255 154.982C278.792 153.387 265.768 115.212 265.768 115.212L255.768 119.882C255.768 119.882 263.81 158.199 272.034 167.305C280.257 176.411 315.358 184.167 315.358 184.167L318.146 163.232Z" fill="#407BFF"/>
<path opacity="0.2" d="M315.28 184.128L314.683 183.986C312.919 183.584 307.38 182.287 300.804 180.354C290.128 177.254 276.664 172.571 271.969 167.318C263.758 158.238 255.703 119.882 255.703 119.882L265.691 115.212C265.691 115.212 278.727 153.4 282.255 154.982C285.783 156.565 318.146 163.232 318.146 163.232L315.28 184.128Z" fill="black"/>
<path d="M265.859 114.46L267.921 118.442L255.08 122.865L255.573 118.001L265.859 114.46Z" fill="#407BFF"/>
<path opacity="0.2" d="M315.526 183.597C313.736 183.337 308.12 182.468 301.4 181.002C305.227 174.387 316.434 170.989 316.434 170.989L315.526 183.597Z" fill="black"/>
<path d="M363.805 136.796C363.805 136.796 365.712 154.736 359.071 159.146C352.429 163.556 319.729 158.393 316.019 151.168C312.309 143.943 326.266 124.357 326.266 124.357L363.805 136.796Z" fill="#263238"/>
<path d="M231.511 372.848L240.046 374.91L244.366 363.132L248.283 352.418L238.568 348.28L234.832 361.277L231.511 372.848Z" fill="#F4A28C"/>
<path opacity="0.2" d="M234.832 361.277L244.365 363.132L248.283 352.418L238.567 348.28L234.832 361.277Z" fill="black"/>
<path d="M235.688 355.064L247.517 359.461C247.517 359.461 279.076 280.557 285.562 280.336C292.048 280.116 358.084 310.417 374.636 293.58C391.187 276.743 367.255 236.143 367.255 236.143C367.255 236.143 327.446 230.462 324.45 239.451C323.712 242.101 323.149 244.796 322.764 247.519C322.31 250.269 321.998 252.578 321.998 252.578C320.766 252.267 280.802 241.954 265.054 252.578C249.035 263.383 235.688 355.064 235.688 355.064Z" fill="#407BFF"/>
<path opacity="0.6" d="M235.688 355.064L247.517 359.461C247.517 359.461 279.076 280.557 285.562 280.336C292.048 280.116 358.084 310.417 374.636 293.58C391.187 276.743 367.255 236.143 367.255 236.143C367.255 236.143 327.446 230.462 324.45 239.451C323.712 242.101 323.149 244.796 322.764 247.519C322.31 250.269 321.998 252.578 321.998 252.578C320.766 252.267 280.802 241.954 265.054 252.578C249.035 263.383 235.688 355.064 235.688 355.064Z" fill="white"/>
<path d="M303.735 406.508L312.232 404.342L310.597 392.136L309.079 380.955L298.573 381.901L301.297 394.938L303.735 406.508Z" fill="#F4A28C"/>
<path opacity="0.2" d="M301.361 395.197L310.649 392.369L309.105 381.071L298.585 381.966L301.361 395.197Z" fill="black"/>
<path d="M252.408 355.077L235.169 349.227L234.43 356.283L247.505 360.901L252.408 355.077Z" fill="#407BFF"/>
<path d="M346.047 297.575C346.047 297.575 343.349 297.64 301.595 295.694C301.595 295.694 307.834 347.891 311.245 386.973L298.754 389.101C298.754 389.101 268.92 305.423 269.244 292.127C269.569 278.832 284.81 274.94 284.81 274.94C284.81 274.94 314.553 292.127 346.047 297.575Z" fill="#407BFF"/>
<path opacity="0.6" d="M346.047 297.575C346.047 297.575 343.349 297.64 301.595 295.694C301.595 295.694 307.834 347.891 311.245 386.973L298.754 389.101C298.754 389.101 268.92 305.423 269.244 292.127C269.569 278.832 284.81 274.94 284.81 274.94C284.81 274.94 314.553 292.127 346.047 297.575Z" fill="white"/>
<path opacity="0.1" d="M346.047 297.575C346.047 297.575 343.349 297.64 301.595 295.694C301.595 295.694 307.834 347.891 311.245 386.973L298.754 389.101C298.754 389.101 268.92 305.423 269.244 292.127C269.569 278.832 284.81 274.94 284.81 274.94C284.81 274.94 314.553 292.127 346.047 297.575Z" fill="black"/>
<path d="M313.061 383.186L295.9 385.144L299.221 391.863L313.113 390.086L313.061 383.186Z" fill="#407BFF"/>
<path opacity="0.1" d="M321.999 252.578L345.282 257.429C345.282 257.429 332.414 250.321 322.764 247.519C322.31 250.269 321.999 252.578 321.999 252.578Z" fill="black"/>
<path d="M366.295 229.956L367.255 236.143L324.45 239.451L323.321 232.122L366.295 229.956Z" fill="#263238"/>
<path opacity="0.2" d="M366.295 229.956L367.255 236.143L324.45 239.451L323.321 232.122L366.295 229.956Z" fill="black"/>
<path d="M352.795 240.322L354.911 240.105L353.803 229.331L351.687 229.548L352.795 240.322Z" fill="#407BFF"/>
<path d="M333.778 239.246L343.15 238.644L342.693 231.537L333.321 232.14L333.778 239.246Z" fill="white"/>
<path d="M326.531 241.454L328.647 241.237L327.54 230.463L325.424 230.68L326.531 241.454Z" fill="#407BFF"/>
<path opacity="0.6" d="M352.795 240.322L354.911 240.105L353.803 229.331L351.687 229.548L352.795 240.322Z" fill="white"/>
<path opacity="0.6" d="M326.531 241.454L328.647 241.237L327.54 230.463L325.424 230.68L326.531 241.454Z" fill="white"/>
<path d="M317.368 162.648C325.385 164.863 333.706 165.778 342.013 165.359C355.763 164.659 372.133 171.287 372.133 171.287L366.244 229.917L323.257 232.083C323.257 232.083 308.872 183.169 317.368 162.648Z" fill="#407BFF"/>
<path d="M324.281 129.532C324.281 129.532 326.694 101.073 350.483 111.373C380.317 124.344 356.606 159.029 342.013 151.921C327.42 144.813 324.281 129.532 324.281 129.532Z" fill="#263238"/>
<path opacity="0.2" d="M330.949 166.955L331.636 183.039L336.967 175.477C336.967 175.477 335.061 193.26 336.176 202.95C336.176 202.95 337.201 185.581 339.614 175.477L345.282 183.039L353.415 167.058C353.415 167.058 340.249 162.324 330.949 166.955Z" fill="black"/>
<path d="M338.316 169.99L350.626 166.513C343.038 161.325 346.865 149.651 346.865 149.651L334.672 153.931C335.232 155.626 335.666 157.361 335.969 159.12C337.266 166.721 333.815 167.331 333.815 167.331L338.316 169.99Z" fill="#F4A28C"/>
<path opacity="0.2" d="M334.671 153.867C335.232 155.561 335.666 157.296 335.969 159.055C341.806 156.707 346.851 149.56 346.851 149.56L334.671 153.867Z" fill="black"/>
<path d="M342.636 117.391C331.831 115.005 327.07 119.986 323.828 130.959C319.768 144.644 320.663 155.203 334.814 155.228C354.038 155.254 360.562 121.36 342.636 117.391Z" fill="#F4A28C"/>
<path d="M330.936 131.906C329.72 133.328 328.334 134.595 326.811 135.681C327.029 136.2 327.387 136.649 327.845 136.976C328.303 137.304 328.843 137.498 329.405 137.536L330.936 131.906Z" fill="#DE5753"/>
<path d="M337.746 132.477C337.525 133.359 337.824 134.202 338.42 134.345C339.017 134.487 339.653 133.891 339.873 133.048C340.094 132.204 339.795 131.335 339.199 131.18C338.602 131.024 337.966 131.595 337.746 132.477Z" fill="#263238"/>
<path d="M339.432 131.245L337.707 130.025C337.707 130.025 338.265 131.88 339.432 131.245Z" fill="#263238"/>
<path d="M326.824 129.597C326.604 130.479 326.902 131.322 327.499 131.465C328.095 131.608 328.796 131.011 328.951 130.168C329.107 129.325 328.873 128.456 328.277 128.3C327.68 128.144 327.045 128.715 326.824 129.597Z" fill="#263238"/>
<path d="M328.51 128.365L326.733 127.185C326.733 127.185 327.343 128.988 328.51 128.365Z" fill="#263238"/>
<path d="M343.829 128.183C343.742 128.185 343.657 128.163 343.581 128.119C343.506 128.076 343.444 128.013 343.401 127.937C342.974 127.27 342.403 126.707 341.729 126.289C341.056 125.872 340.298 125.61 339.51 125.524C339.386 125.508 339.273 125.446 339.194 125.349C339.114 125.253 339.074 125.13 339.082 125.005C339.095 124.88 339.157 124.765 339.254 124.685C339.351 124.605 339.476 124.566 339.601 124.577C340.557 124.67 341.478 124.983 342.293 125.491C343.108 126 343.794 126.691 344.296 127.509C344.325 127.564 344.343 127.625 344.348 127.687C344.353 127.749 344.346 127.811 344.327 127.87C344.307 127.93 344.276 127.984 344.235 128.031C344.195 128.079 344.145 128.117 344.089 128.144C344.007 128.177 343.918 128.19 343.829 128.183Z" fill="#263238"/>
<path d="M331.753 123.293C331.665 123.292 331.579 123.265 331.507 123.215C330.869 122.909 330.171 122.751 329.464 122.751C328.756 122.751 328.058 122.909 327.421 123.215C327.365 123.238 327.304 123.25 327.244 123.249C327.183 123.249 327.123 123.236 327.068 123.212C327.012 123.187 326.962 123.152 326.92 123.108C326.878 123.065 326.845 123.013 326.824 122.956C326.801 122.899 326.789 122.838 326.79 122.776C326.79 122.715 326.803 122.654 326.827 122.597C326.851 122.54 326.886 122.489 326.93 122.446C326.974 122.403 327.026 122.369 327.083 122.346C327.858 121.986 328.705 121.808 329.56 121.825C330.414 121.843 331.253 122.057 332.012 122.45C332.065 122.483 332.11 122.526 332.145 122.577C332.181 122.627 332.206 122.684 332.219 122.745C332.232 122.805 332.234 122.867 332.223 122.928C332.212 122.989 332.189 123.047 332.155 123.099C332.109 123.161 332.048 123.212 331.978 123.246C331.908 123.279 331.831 123.296 331.753 123.293Z" fill="#263238"/>
<path d="M350.405 138.197C350.405 138.197 347.318 128.209 349.601 121.529C349.601 121.529 330.144 108.052 324.281 129.532C324.281 129.532 326.447 109.79 345.113 113.474C363.779 117.158 357.669 144.281 346.293 150.248C346.293 150.248 352.299 144.436 350.405 138.197Z" fill="#263238"/>
<path d="M348.136 140.156C348.515 138.929 349.366 137.902 350.502 137.301C351.638 136.701 352.965 136.575 354.193 136.952C357.462 138.055 357.527 145.28 348.849 145.085C347.591 144.994 347.176 143.684 348.136 140.156Z" fill="#F4A28C"/>
<path d="M327.447 141.635C327.735 142.959 327.926 144.303 328.018 145.656H328.718C331.948 145.928 333.53 144.981 334.309 143.866C334.681 143.311 334.912 142.675 334.983 142.011C335.038 141.637 335.038 141.256 334.983 140.882C332.901 141.599 330.689 141.86 328.497 141.648C327.875 141.686 327.447 141.635 327.447 141.635Z" fill="#263238"/>
<path d="M328.549 141.712L328.743 142.893C331.779 143.139 333.932 142.893 334.983 142.076C335.037 141.701 335.037 141.321 334.983 140.947C332.917 141.657 330.723 141.918 328.549 141.712Z" fill="white"/>
<path d="M328.718 145.721C331.948 145.993 333.53 145.046 334.308 143.931C333.084 143.851 331.854 143.987 330.676 144.333C329.894 144.577 329.208 145.063 328.718 145.721Z" fill="#DE5753"/>
<path d="M342.675 118.26C342.675 118.26 343.09 136.978 354.349 139.235C365.608 141.492 353.312 115.16 353.312 115.16C353.312 115.16 336.579 104.238 325.423 111.943C314.268 119.648 324.308 129.532 324.308 129.532C324.308 129.532 326.63 115.627 342.675 118.26Z" fill="#263238"/>
<path d="M346.968 135.395C346.892 135.395 346.819 135.367 346.761 135.318C338.77 129.039 342.714 117.028 342.753 116.911C342.782 116.83 342.842 116.763 342.919 116.725C342.996 116.686 343.085 116.679 343.168 116.704C343.248 116.733 343.314 116.793 343.351 116.871C343.387 116.949 343.391 117.038 343.362 117.119C343.362 117.236 339.536 128.793 347.163 134.812C347.194 134.841 347.219 134.876 347.235 134.915C347.252 134.954 347.261 134.996 347.261 135.039C347.261 135.081 347.252 135.123 347.235 135.162C347.219 135.201 347.194 135.237 347.163 135.266C347.141 135.3 347.113 135.329 347.079 135.351C347.046 135.374 347.008 135.389 346.968 135.395Z" fill="#263238"/>
<path d="M357.604 143.074C356.178 146.888 352.507 149.028 349.407 147.874C346.306 146.719 344.957 142.685 346.384 138.872C347.811 135.058 351.482 132.918 354.582 134.085C357.682 135.253 359.031 139.274 357.604 143.074Z" fill="#407BFF"/>
<path opacity="0.4" d="M357.604 143.074C356.178 146.888 352.507 149.028 349.407 147.874C346.306 146.719 344.957 142.685 346.384 138.872C347.811 135.058 351.482 132.918 354.582 134.085C357.682 135.253 359.031 139.274 357.604 143.074Z" fill="black"/>
<path d="M353.973 136.835C353.973 136.835 358.629 115.99 348.188 110.529C349.377 110.685 350.555 110.915 351.716 111.217C353.013 111.606 361.405 120.063 357.19 138.794L353.973 136.835Z" fill="#407BFF"/>
<path opacity="0.2" d="M353.973 136.835C353.973 136.835 358.629 115.99 348.188 110.529C349.377 110.685 350.555 110.915 351.716 111.217C353.013 111.606 361.405 120.063 357.19 138.794L353.973 136.835Z" fill="black"/>
<path d="M334.516 148.769L333.738 148.652L333.945 147.355C339.674 148.236 345.527 146.995 350.406 143.866L351.171 144.903C346.266 148.154 340.352 149.527 334.516 148.769Z" fill="#407BFF"/>
<g opacity="0.2">
<path d="M334.516 148.769L333.738 148.652L333.945 147.355C339.674 148.236 345.527 146.995 350.406 143.866L351.171 144.903C346.266 148.154 340.352 149.527 334.516 148.769Z" fill="black"/>
</g>
<path d="M357.164 142.556C356.23 145.072 353.792 146.447 351.755 145.721C349.719 144.994 348.811 142.296 349.757 139.78C350.704 137.263 353.13 135.888 355.166 136.615C357.203 137.341 358.111 140.039 357.164 142.556Z" fill="#407BFF"/>
<path d="M333.297 149.236L332.246 149.093C332.063 149.069 331.886 149.009 331.726 148.916C331.566 148.824 331.425 148.7 331.313 148.553C331.201 148.406 331.119 148.238 331.072 148.059C331.025 147.88 331.014 147.694 331.04 147.511C331.062 147.326 331.121 147.148 331.213 146.986C331.305 146.824 331.428 146.683 331.575 146.569C331.723 146.456 331.891 146.373 332.071 146.325C332.251 146.277 332.438 146.266 332.622 146.291L333.66 146.434C334.03 146.486 334.365 146.68 334.593 146.976C334.821 147.272 334.924 147.646 334.879 148.016C334.828 148.386 334.633 148.721 334.337 148.949C334.041 149.177 333.668 149.28 333.297 149.236Z" fill="#407BFF"/>
<path opacity="0.4" d="M333.297 149.236L332.246 149.093C332.063 149.069 331.886 149.009 331.726 148.916C331.566 148.824 331.425 148.7 331.313 148.553C331.201 148.406 331.119 148.238 331.072 148.059C331.025 147.88 331.014 147.694 331.04 147.511C331.062 147.326 331.121 147.148 331.213 146.986C331.305 146.824 331.428 146.683 331.575 146.569C331.723 146.456 331.891 146.373 332.071 146.325C332.251 146.277 332.438 146.266 332.622 146.291L333.66 146.434C334.03 146.486 334.365 146.68 334.593 146.976C334.821 147.272 334.924 147.646 334.879 148.016C334.828 148.386 334.633 148.721 334.337 148.949C334.041 149.177 333.668 149.28 333.297 149.236Z" fill="black"/>
<path d="M347.319 162.012L339.614 169.575L342.701 178.862L353.415 167.058L347.319 162.012Z" fill="#407BFF"/>
<path d="M336.176 163.595L337.421 169.419L333.439 177.656L330.949 166.955L336.176 163.595Z" fill="#407BFF"/>
<path d="M345.671 168.576L350.146 152.193C350.146 152.193 347.98 148.12 348.447 147.264C348.914 146.408 351.249 135.408 352.909 134.215C354.57 133.022 361.406 135.058 362.093 136.174C362.78 137.289 355.543 152.193 355.543 152.193L352.948 169.951L345.671 168.576Z" fill="#F4A28C"/>
<path d="M372.132 171.287C384.455 183.895 359.771 212.458 345.619 211.238C331.468 210.019 345.982 158.238 345.982 158.238L355.062 159.73C355.062 159.73 351.884 182.144 352.883 183.895C353.882 185.646 368.047 167.097 372.132 171.287Z" fill="#407BFF"/>
<path opacity="0.2" d="M372.132 171.287C384.455 183.895 359.771 212.458 345.619 211.238C331.468 210.019 345.982 158.238 345.982 158.238L355.062 159.73C355.062 159.73 351.884 182.144 352.883 183.895C353.882 185.646 368.047 167.097 372.132 171.287Z" fill="black"/>
<path d="M345.282 156.616L343.946 160.897L356.567 162.012V158.277L345.282 156.616Z" fill="#407BFF"/>
<path opacity="0.6" d="M326.15 190.484H321.039C320.473 190.484 320.014 190.943 320.014 191.509V201.16C320.014 201.726 320.473 202.184 321.039 202.184H326.15C326.715 202.184 327.174 201.726 327.174 201.16V191.509C327.174 190.943 326.715 190.484 326.15 190.484Z" fill="white"/>
<path opacity="0.2" d="M326.253 191.263H320.442V199.214H326.253V191.263Z" fill="black"/>
<path d="M324.126 187.67H322.842V192.352H324.126V187.67Z" fill="#263238"/>
<path d="M217.398 389.425C218.692 388.823 220.086 388.467 221.51 388.374C221.51 388.374 226.439 385.482 231.316 374.21H236.803C237.733 374.216 238.639 374.51 239.396 375.051C240.153 375.592 240.724 376.354 241.032 377.232C241.123 377.473 241.176 377.727 241.187 377.984C241.122 379.31 240.98 380.631 240.759 381.94C239.957 386.325 238.887 390.657 237.555 394.912L236.621 394.678L238.308 386.48C238.878 383.704 235.947 386.39 234.598 389.191C233.249 391.993 231.161 394.834 225.09 393.446C218.021 391.708 215.18 390.696 217.398 389.425Z" fill="#407BFF"/>
<path d="M232.315 371.265C232.315 371.265 225.454 385.611 221.51 388.374C221.51 388.374 226.803 391.526 232.315 384.483C239.437 375.403 241.188 377.932 241.188 377.932C241.038 376.366 240.747 374.816 240.319 373.301C239.255 370.396 232.315 371.265 232.315 371.265Z" fill="#F4A28C"/>
<path d="M292.917 423.604C294.038 422.721 295.308 422.044 296.666 421.607C296.666 421.607 300.765 417.624 302.827 405.522L308.158 404.225C309.063 404.017 310.01 404.092 310.871 404.44C311.732 404.788 312.465 405.392 312.971 406.171C313.117 406.387 313.23 406.623 313.308 406.871C313.567 408.156 313.745 409.455 313.84 410.763C314.089 415.196 314.068 419.64 313.775 424.071H312.815L312.517 415.718C312.4 412.877 310.208 416.185 309.546 419.233C308.885 422.281 307.549 425.511 301.323 425.602C294.072 425.68 291.062 425.368 292.917 423.604Z" fill="#407BFF"/>
<path d="M303.099 402.422C303.099 402.422 299.844 417.988 296.614 421.607C296.614 421.607 302.503 423.422 306.187 415.289C310.96 404.783 313.256 406.832 313.256 406.832C312.743 405.345 312.096 403.908 311.323 402.539C309.637 399.944 303.099 402.422 303.099 402.422Z" fill="#F4A28C"/>
<path d="M423.707 88.4653H378.424C374.792 88.4653 371.848 91.4097 371.848 95.0418V114.408C371.848 118.04 374.792 120.984 378.424 120.984H423.707C427.339 120.984 430.283 118.04 430.283 114.408V95.0418C430.283 91.4097 427.339 88.4653 423.707 88.4653Z" fill="#407BFF"/>
<path d="M387.504 117.275L373.858 135.823L395.87 118.52L387.504 117.275Z" fill="#407BFF"/>
<path d="M388.01 104.718C388.012 105.099 387.902 105.472 387.692 105.79C387.482 106.107 387.182 106.355 386.831 106.502C386.479 106.649 386.092 106.688 385.719 106.615C385.345 106.541 385.002 106.358 384.733 106.089C384.463 105.819 384.28 105.476 384.207 105.103C384.133 104.729 384.172 104.342 384.319 103.991C384.466 103.639 384.714 103.34 385.032 103.13C385.349 102.92 385.722 102.809 386.103 102.812C386.609 102.812 387.094 103.012 387.451 103.37C387.809 103.728 388.01 104.213 388.01 104.718Z" fill="white"/>
<path d="M397.984 104.718C397.987 105.099 397.876 105.472 397.666 105.79C397.456 106.107 397.157 106.355 396.805 106.502C396.454 106.649 396.067 106.688 395.693 106.615C395.32 106.541 394.977 106.358 394.707 106.089C394.438 105.819 394.255 105.476 394.181 105.103C394.108 104.729 394.147 104.342 394.294 103.991C394.441 103.639 394.689 103.34 395.006 103.13C395.324 102.92 395.697 102.809 396.078 102.812C396.583 102.812 397.068 103.012 397.426 103.37C397.784 103.728 397.984 104.213 397.984 104.718Z" fill="white"/>
<path d="M407.96 104.718C407.962 105.099 407.851 105.472 407.641 105.79C407.432 106.107 407.132 106.355 406.78 106.502C406.429 106.649 406.042 106.688 405.668 106.615C405.295 106.541 404.952 106.358 404.682 106.089C404.413 105.819 404.23 105.476 404.156 105.103C404.083 104.729 404.122 104.342 404.269 103.991C404.416 103.639 404.664 103.34 404.981 103.13C405.299 102.92 405.672 102.809 406.053 102.812C406.558 102.812 407.044 103.012 407.401 103.37C407.759 103.728 407.96 104.213 407.96 104.718Z" fill="white"/>
<path d="M417.934 104.718C417.937 105.099 417.826 105.472 417.616 105.79C417.406 106.107 417.106 106.355 416.755 106.502C416.404 106.649 416.017 106.688 415.643 106.615C415.27 106.541 414.926 106.358 414.657 106.089C414.388 105.819 414.205 105.476 414.131 105.103C414.057 104.729 414.096 104.342 414.243 103.991C414.39 103.639 414.638 103.34 414.956 103.13C415.274 102.92 415.647 102.809 416.027 102.812C416.533 102.812 417.018 103.012 417.376 103.37C417.733 103.728 417.934 104.213 417.934 104.718Z" fill="white"/>
<path d="M253.671 73.1306L221.364 55.7279C220.494 55.2591 219.408 55.5846 218.939 56.4549L208.629 75.5946C208.16 76.4649 208.486 77.5506 209.356 78.0194L241.663 95.4221C242.533 95.8909 243.619 95.5654 244.088 94.6951L254.398 75.5554C254.867 74.685 254.541 73.5994 253.671 73.1306Z" fill="#407BFF"/>
<path opacity="0.7" d="M253.671 73.1306L221.364 55.7279C220.494 55.2591 219.408 55.5846 218.939 56.4549L208.629 75.5946C208.16 76.4649 208.486 77.5506 209.356 78.0194L241.663 95.4221C242.533 95.8909 243.619 95.5654 244.088 94.6951L254.398 75.5554C254.867 74.685 254.541 73.5994 253.671 73.1306Z" fill="white"/>
<path opacity="0.2" d="M218.099 58.0347L228.151 76.9079C228.537 77.6269 229.128 78.2153 229.848 78.5985C230.569 78.9818 231.386 79.1428 232.198 79.0612L253.225 76.9858L231.822 80.1378C230.887 80.2761 229.932 80.1083 229.1 79.6595C228.268 79.2107 227.603 78.5049 227.204 77.6473L218.099 58.0347Z" fill="black"/>
<path d="M193.57 54.5455C193.92 47.3334 199.264 32.7926 205.763 28.3435C212.262 23.8944 207.981 30.0557 207.981 30.0557C207.981 30.0557 214.142 24.063 217.385 24.2446C220.628 24.4262 217.385 28.136 217.385 28.136C217.385 28.136 224.065 24.0241 227.14 24.2446C230.214 24.4651 227.14 28.0192 227.14 28.0192C227.14 28.0192 232.613 24.1278 234.832 25.9568C237.05 27.7857 206.437 48.0079 203.026 56.2317C199.615 64.4555 193.22 61.8223 193.57 54.5455Z" fill="#407BFF"/>
<path opacity="0.4" d="M193.57 54.5455C193.92 47.3334 199.264 32.7926 205.763 28.3435C212.262 23.8944 207.981 30.0557 207.981 30.0557C207.981 30.0557 214.142 24.063 217.385 24.2446C220.628 24.4262 217.385 28.136 217.385 28.136C217.385 28.136 224.065 24.0241 227.14 24.2446C230.214 24.4651 227.14 28.0192 227.14 28.0192C227.14 28.0192 232.613 24.1278 234.832 25.9568C237.05 27.7857 206.437 48.0079 203.026 56.2317C199.615 64.4555 193.22 61.8223 193.57 54.5455Z" fill="white"/>
<path d="M219.876 53.4559L223.962 56.0501C224.026 56.0901 224.076 56.1507 224.101 56.2221C224.127 56.2935 224.128 56.3715 224.104 56.4435C224.08 56.5155 224.033 56.5773 223.969 56.6189C223.906 56.6605 223.83 56.6795 223.754 56.6728L219.461 56.3355L219.824 59.6302C219.835 59.7079 219.82 59.7869 219.782 59.8554C219.744 59.924 219.684 59.9784 219.613 60.0105C219.541 60.0426 219.461 60.0507 219.385 60.0336C219.308 60.0165 219.239 59.9751 219.188 59.9156L216.711 57.1397L219.876 53.4559Z" fill="#407BFF"/>
<path opacity="0.3" d="M219.876 53.4559L223.962 56.0501C224.026 56.0901 224.076 56.1507 224.101 56.2221C224.127 56.2935 224.128 56.3715 224.104 56.4435C224.08 56.5155 224.033 56.5773 223.969 56.6189C223.906 56.6605 223.83 56.6795 223.754 56.6728L219.461 56.3355L219.824 59.6302C219.835 59.7079 219.82 59.7869 219.782 59.8554C219.744 59.924 219.684 59.9784 219.613 60.0105C219.541 60.0426 219.461 60.0507 219.385 60.0336C219.308 60.0165 219.239 59.9751 219.188 59.9156L216.711 57.1397L219.876 53.4559Z" fill="white"/>
<path d="M162.478 37.2158C162.478 37.2158 168.134 33.3245 176.682 35.8409C176.682 35.8409 179.133 47.1389 185.865 50.9005C189.562 52.963 198.603 52.7814 205.763 50.4725C214.259 47.7226 218.41 47.7226 219.954 50.9005C221.497 54.0785 219.785 57.3862 213.286 58.9298C206.788 60.4733 201.612 71.7583 189.847 71.901C178.082 72.0437 171.83 60.2269 174.801 49.8499C171.988 44.545 167.711 40.1597 162.478 37.2158Z" fill="#407BFF"/>
<path opacity="0.5" d="M162.478 37.2158C162.478 37.2158 168.134 33.3245 176.682 35.8409C176.682 35.8409 179.133 47.1389 185.865 50.9005C189.562 52.963 198.603 52.7814 205.763 50.4725C214.259 47.7226 218.41 47.7226 219.954 50.9005C221.497 54.0785 219.785 57.3862 213.286 58.9298C206.788 60.4733 201.612 71.7583 189.847 71.901C178.082 72.0437 171.83 60.2269 174.801 49.8499C171.988 44.545 167.711 40.1597 162.478 37.2158Z" fill="white"/>
<path d="M216.712 53.0412C216.712 53.1567 216.677 53.2696 216.613 53.3657C216.549 53.4617 216.458 53.5366 216.351 53.5808C216.244 53.625 216.127 53.6366 216.014 53.6141C215.9 53.5915 215.796 53.5359 215.715 53.4542C215.633 53.3725 215.577 53.2684 215.555 53.1551C215.532 53.0418 215.544 52.9244 215.588 52.8176C215.632 52.7109 215.707 52.6197 215.803 52.5555C215.899 52.4913 216.012 52.4571 216.128 52.4571C216.282 52.4571 216.431 52.5186 216.541 52.6282C216.65 52.7377 216.712 52.8863 216.712 53.0412Z" fill="#263238"/>
<path d="M187.111 62.5358C180.145 64.4296 164.657 63.8329 158.431 59.0335C152.205 54.2342 159.365 56.4393 159.365 56.4393C159.365 56.4393 151.777 52.4311 150.934 49.2921C150.091 46.153 154.669 48.0728 154.669 48.0728C154.669 48.0728 148.703 43.001 147.924 40.0176C147.146 37.0343 151.504 38.8502 151.504 38.8502C151.504 38.8502 146.069 34.8551 147.172 32.17C148.275 29.485 176.928 52.3663 185.788 53.0797C194.647 53.7931 194.167 60.616 187.111 62.5358Z" fill="#407BFF"/>
<path opacity="0.4" d="M187.111 62.5358C180.145 64.4296 164.657 63.8329 158.431 59.0335C152.205 54.2342 159.365 56.4393 159.365 56.4393C159.365 56.4393 151.777 52.4311 150.934 49.2921C150.091 46.153 154.669 48.0728 154.669 48.0728C154.669 48.0728 148.703 43.001 147.924 40.0176C147.146 37.0343 151.504 38.8502 151.504 38.8502C151.504 38.8502 146.069 34.8551 147.172 32.17C148.275 29.485 176.928 52.3663 185.788 53.0797C194.647 53.7931 194.167 60.616 187.111 62.5358Z" fill="white"/>
<path d="M141.452 30.9767C141.401 30.9893 141.347 30.9893 141.296 30.9767C140.09 30.5486 138.858 30.1465 137.613 29.7703C137.489 29.7314 137.386 29.6458 137.326 29.5318C137.265 29.4178 137.252 29.2845 137.288 29.1607C137.327 29.0375 137.413 28.9346 137.527 28.8739C137.641 28.8133 137.774 28.7998 137.898 28.8364C139.195 29.2126 140.401 29.6276 141.621 30.1335C141.729 30.1706 141.821 30.2455 141.879 30.3444C141.937 30.4434 141.958 30.56 141.938 30.673C141.917 30.786 141.857 30.8879 141.768 30.9603C141.679 31.0327 141.567 31.0707 141.452 31.0675V30.9767Z" fill="#407BFF"/>
<path d="M63.0534 136.264C62.9248 136.265 62.8014 136.214 62.7093 136.125C62.6172 136.035 62.5638 135.913 62.5604 135.785C62.5604 135.656 62.6105 135.533 62.7002 135.44C62.7898 135.348 62.9119 135.295 63.0404 135.292C65.6208 135.255 68.1937 135.003 70.7323 134.539C70.8595 134.516 70.9905 134.544 71.0973 134.617C71.204 134.69 71.2779 134.802 71.3031 134.928C71.3162 134.992 71.3165 135.057 71.3039 135.12C71.2913 135.183 71.266 135.243 71.2297 135.296C71.1934 135.35 71.1467 135.395 71.0925 135.43C71.0382 135.465 70.9775 135.488 70.9139 135.499C68.3198 135.974 65.6904 136.23 63.0534 136.264ZM55.2706 135.849C52.6531 135.57 50.0544 135.137 47.4878 134.552C47.3608 134.524 47.25 134.447 47.1795 134.338C47.109 134.229 47.0847 134.096 47.1117 133.969C47.1425 133.844 47.2207 133.736 47.3297 133.668C47.4388 133.601 47.5699 133.578 47.6954 133.605C50.2213 134.174 52.776 134.607 55.3484 134.902C55.4638 134.921 55.5687 134.981 55.6444 135.07C55.7201 135.159 55.7616 135.272 55.7616 135.389C55.7616 135.506 55.7201 135.619 55.6444 135.708C55.5687 135.797 55.4638 135.856 55.3484 135.875L55.2706 135.849ZM78.3205 133.255C78.2272 133.256 78.1358 133.229 78.0575 133.178C77.9792 133.127 77.9173 133.055 77.8795 132.97C77.8516 132.911 77.8359 132.848 77.8332 132.783C77.8306 132.718 77.8411 132.653 77.8641 132.593C77.8872 132.532 77.9222 132.477 77.9672 132.43C78.0123 132.384 78.0662 132.346 78.126 132.321C80.4818 131.306 82.6688 129.937 84.6116 128.261C84.7109 128.185 84.8353 128.15 84.9595 128.163C85.0838 128.175 85.1987 128.234 85.2811 128.328C85.3635 128.422 85.4071 128.544 85.4032 128.668C85.3993 128.793 85.3482 128.912 85.2602 129.001C83.2394 130.734 80.9701 132.155 78.5281 133.216C78.4565 133.256 78.3764 133.278 78.2946 133.281L78.3205 133.255ZM40.0683 132.373C40.0171 132.386 39.9637 132.386 39.9126 132.373C37.4481 131.556 34.9706 130.596 32.5709 129.545C32.4645 129.485 32.3846 129.386 32.3467 129.27C32.3088 129.153 32.3156 129.027 32.3658 128.915C32.416 128.804 32.506 128.715 32.6182 128.666C32.7305 128.617 32.8569 128.611 32.973 128.65C35.3337 129.688 37.7723 130.635 40.2239 131.452C40.3453 131.496 40.4445 131.586 40.5003 131.702C40.5561 131.819 40.564 131.953 40.5223 132.075C40.4856 132.165 40.4226 132.241 40.3415 132.294C40.2605 132.348 40.1652 132.375 40.0683 132.373ZM25.7999 126.069C25.7237 126.092 25.6425 126.092 25.5664 126.069C23.2445 124.772 20.9875 123.371 18.8862 121.905C18.8342 121.869 18.79 121.822 18.756 121.768C18.722 121.715 18.6989 121.655 18.6881 121.592C18.6773 121.53 18.6789 121.465 18.6928 121.403C18.7068 121.341 18.7328 121.283 18.7694 121.231C18.8061 121.179 18.8526 121.135 18.9063 121.101C18.96 121.067 19.0199 121.044 19.0825 121.033C19.1451 121.022 19.2093 121.023 19.2713 121.037C19.3333 121.051 19.392 121.077 19.4439 121.114C21.5193 122.554 23.7374 123.942 26.0463 125.226C26.1022 125.257 26.1513 125.299 26.1908 125.349C26.2303 125.399 26.2593 125.457 26.2762 125.518C26.2931 125.58 26.2976 125.644 26.2893 125.708C26.281 125.771 26.2601 125.832 26.2279 125.887C26.1731 125.972 26.0944 126.037 26.0021 126.077C25.9097 126.116 25.8077 126.127 25.7091 126.108L25.7999 126.069ZM89.9298 123.099C89.8537 123.122 89.7725 123.122 89.6963 123.099C89.6405 123.068 89.5914 123.026 89.5519 122.976C89.5124 122.925 89.4834 122.868 89.4664 122.806C89.4495 122.744 89.4451 122.68 89.4534 122.617C89.4617 122.553 89.4825 122.492 89.5147 122.437C89.9169 121.737 90.293 121.01 90.6303 120.258C91.3522 118.67 91.917 117.014 92.3165 115.316C92.3502 115.19 92.431 115.082 92.5421 115.015C92.6532 114.947 92.7861 114.925 92.9132 114.953C93.0383 114.986 93.1451 115.068 93.2106 115.179C93.2761 115.291 93.2951 115.424 93.2634 115.549C92.8402 117.304 92.254 119.015 91.5123 120.66C91.1621 121.438 90.773 122.204 90.3579 122.93C90.3026 123.013 90.2233 123.077 90.1307 123.114C90.0381 123.151 89.9364 123.16 89.839 123.138L89.9298 123.099ZM13.0102 117.106C12.896 117.104 12.786 117.063 12.6989 116.989C10.7234 115.244 8.87267 113.363 7.16014 111.36C7.07061 111.268 7.02051 111.144 7.02051 111.016C7.02051 110.887 7.07061 110.764 7.16014 110.672C7.24997 110.583 7.37114 110.534 7.4974 110.534C7.62365 110.534 7.74482 110.583 7.83465 110.672C9.51623 112.634 11.3323 114.476 13.2696 116.185C13.3591 116.277 13.4092 116.4 13.4092 116.529C13.4092 116.657 13.3591 116.78 13.2696 116.872C13.2375 116.943 13.1888 117.004 13.1279 117.052C13.0669 117.099 12.9954 117.131 12.9194 117.145L13.0102 117.106ZM93.6656 108.104C93.6014 108.104 93.5379 108.091 93.4788 108.066C93.4197 108.041 93.3662 108.005 93.3215 107.959C93.2768 107.913 93.2417 107.858 93.2184 107.799C93.195 107.739 93.1839 107.675 93.1856 107.611C93.1668 105.031 92.9281 102.458 92.4722 99.919C92.4493 99.7918 92.4773 99.6608 92.5501 99.554C92.6228 99.4473 92.7346 99.3734 92.8613 99.3482C92.9899 99.3291 93.1209 99.3602 93.2272 99.435C93.3335 99.5099 93.4068 99.6228 93.4321 99.7503C93.8988 102.345 94.1418 104.975 94.1584 107.611C94.1584 107.742 94.1065 107.867 94.0141 107.959C93.9216 108.052 93.7963 108.104 93.6656 108.104ZM91.0713 92.7199C90.9663 92.7189 90.8644 92.6843 90.7804 92.6213C90.6964 92.5583 90.6347 92.4702 90.6043 92.3697C89.9428 90.0997 89.1256 87.687 88.1268 84.989C88.102 84.9287 88.0898 84.864 88.0908 84.7988C88.0918 84.7336 88.1061 84.6693 88.1328 84.6099C88.1595 84.5504 88.1981 84.497 88.2461 84.4529C88.2941 84.4088 88.3506 84.375 88.4122 84.3534C88.5327 84.311 88.665 84.3171 88.7812 84.3703C88.8973 84.4235 88.9883 84.5198 89.0348 84.6388C90.0466 87.3628 90.8638 89.8273 91.5383 92.0843C91.5748 92.2082 91.5614 92.3414 91.5007 92.4554C91.4401 92.5694 91.3371 92.6551 91.214 92.694L91.0713 92.7199ZM85.7012 77.9975C85.6112 77.9982 85.5229 77.9728 85.4469 77.9245C85.371 77.8762 85.3106 77.8069 85.2731 77.7251C84.443 75.6497 83.3145 73.263 82.1341 70.7336V70.6039C82.1003 70.4908 82.1082 70.3694 82.1563 70.2616C82.2045 70.1539 82.2897 70.067 82.3965 70.0167C82.5033 69.9665 82.6245 69.9562 82.7382 69.9878C82.8519 70.0194 82.9506 70.0907 83.0161 70.1888V70.3185C84.2095 72.9128 85.325 75.2606 86.1552 77.2971C86.2076 77.4193 86.2097 77.5572 86.1612 77.681C86.1126 77.8049 86.0173 77.9046 85.8958 77.9586L85.7012 77.9975ZM79.2156 63.7291C79.1201 63.7321 79.0259 63.7066 78.945 63.6557C78.8641 63.6049 78.8002 63.5311 78.7616 63.4437C77.5941 60.7327 76.6602 58.3331 75.9209 56.115C75.8791 55.9928 75.887 55.8591 75.9428 55.7427C75.9986 55.6263 76.0978 55.5364 76.2192 55.4923C76.343 55.4513 76.4781 55.461 76.5948 55.5193C76.7116 55.5777 76.8004 55.6799 76.8418 55.8037C77.5682 57.9958 78.4892 60.3695 79.6566 63.0546C79.682 63.1133 79.6955 63.1764 79.6962 63.2404C79.6969 63.3043 79.6848 63.3678 79.6607 63.427C79.6365 63.4862 79.6007 63.54 79.5555 63.5852C79.5102 63.6304 79.4564 63.6661 79.3972 63.6902C79.3538 63.7362 79.3006 63.7717 79.2415 63.794L79.2156 63.7291ZM74.4681 48.864C74.352 48.8624 74.2402 48.8199 74.1524 48.744C74.0646 48.6681 74.0065 48.5636 73.9881 48.449C73.7655 47.0591 73.6527 45.6538 73.6509 44.2463C73.6402 42.9887 73.7531 41.7331 73.9881 40.4976C74.0255 40.3825 74.1039 40.2852 74.2084 40.2242C74.313 40.1632 74.4362 40.1428 74.5548 40.1668C74.6734 40.1908 74.779 40.2577 74.8515 40.3545C74.924 40.4514 74.9584 40.5716 74.948 40.6921C74.7235 41.8633 74.6149 43.0538 74.6237 44.2463C74.6282 45.6059 74.7366 46.9632 74.948 48.3063C74.9636 48.4328 74.9308 48.5606 74.8563 48.664C74.7817 48.7674 74.6709 48.8388 74.5459 48.864H74.4681ZM77.8536 34.1287C77.7408 34.1317 77.6306 34.095 77.5423 34.0249C77.4527 33.9329 77.4026 33.8096 77.4026 33.6812C77.4026 33.5528 77.4527 33.4294 77.5423 33.3374C79.2837 31.303 81.4023 29.6248 83.7814 28.3954C83.8952 28.3349 84.0282 28.3213 84.1519 28.3577C84.2756 28.3941 84.38 28.4774 84.443 28.5899C84.4991 28.7059 84.5089 28.8389 84.4704 28.9618C84.4318 29.0848 84.3478 29.1884 84.2354 29.2515C81.97 30.4231 79.9526 32.022 78.2946 33.96C78.2517 34.0317 78.1909 34.091 78.1181 34.1319C78.0453 34.1728 77.963 34.1941 77.8795 34.1935L77.8536 34.1287ZM130.154 27.7727H130.05C127.559 27.2539 124.978 26.8129 122.371 26.4756C122.308 26.4677 122.247 26.4472 122.191 26.4154C122.136 26.3835 122.088 26.341 122.049 26.2903C122.01 26.2396 121.982 26.1817 121.966 26.1199C121.95 26.0582 121.947 25.9939 121.956 25.9308C121.964 25.8676 121.984 25.8065 122.016 25.7513C122.048 25.696 122.09 25.6476 122.141 25.609C122.192 25.5704 122.25 25.5422 122.312 25.5262C122.373 25.5102 122.438 25.5066 122.501 25.5158C125.095 25.853 127.689 26.294 130.283 26.8129C130.4 26.8397 130.502 26.9078 130.572 27.0045C130.642 27.1013 130.675 27.2201 130.664 27.339C130.653 27.4579 130.599 27.5687 130.512 27.6508C130.425 27.733 130.312 27.7809 130.193 27.7857L130.154 27.7727ZM91.2399 26.6702C91.1769 26.677 91.1131 26.6713 91.0523 26.6535C90.9915 26.6357 90.9347 26.6061 90.8854 26.5663C90.836 26.5266 90.7949 26.4775 90.7645 26.4219C90.7341 26.3662 90.7149 26.3052 90.7081 26.2421C90.7013 26.1791 90.7069 26.1154 90.7248 26.0545C90.7426 25.9937 90.7722 25.937 90.812 25.8876C90.8517 25.8382 90.9008 25.7971 90.9564 25.7667C91.0121 25.7363 91.0731 25.7171 91.1362 25.7103C93.6977 25.1356 96.2996 24.7583 98.9189 24.5818C99.0476 24.5746 99.1739 24.6181 99.2709 24.703C99.3679 24.7879 99.4278 24.9073 99.4378 25.0358C99.4431 25.0999 99.4354 25.1644 99.4153 25.2255C99.3952 25.2866 99.363 25.343 99.3207 25.3914C99.2783 25.4398 99.2267 25.4792 99.1688 25.5072C99.1109 25.5353 99.048 25.5514 98.9838 25.5547C96.4078 25.7212 93.8489 26.0899 91.3307 26.6572L91.2399 26.6702ZM114.588 25.7622C112.331 25.6065 109.646 25.4379 106.805 25.386C106.677 25.3826 106.555 25.3292 106.465 25.2372C106.376 25.1451 106.325 25.0216 106.326 24.8931C106.325 24.829 106.338 24.7655 106.363 24.7064C106.388 24.6473 106.425 24.5938 106.471 24.5491C106.517 24.5044 106.571 24.4693 106.631 24.4459C106.691 24.4226 106.754 24.4115 106.818 24.4132C109.685 24.478 112.396 24.6337 114.601 24.7894C114.665 24.7926 114.728 24.8087 114.786 24.8368C114.844 24.8648 114.896 24.9042 114.938 24.9526C114.98 25.001 115.013 25.0575 115.033 25.1185C115.053 25.1796 115.06 25.2441 115.055 25.3082C115.065 25.4253 115.032 25.542 114.963 25.6371C114.894 25.7322 114.793 25.7996 114.679 25.8271L114.588 25.7622Z" fill="#407BFF"/>
<path d="M2.91854 105.133C2.83155 105.135 2.74577 105.113 2.67037 105.069C2.59498 105.026 2.5328 104.963 2.49048 104.887C1.8345 103.748 1.24968 102.57 0.739365 101.359C0.713908 101.3 0.700435 101.237 0.699736 101.173C0.699037 101.109 0.711124 101.046 0.735293 100.986C0.759462 100.927 0.795221 100.873 0.840471 100.828C0.88572 100.783 0.939551 100.747 0.998792 100.723C1.11767 100.675 1.25052 100.676 1.36918 100.724C1.48783 100.772 1.58295 100.865 1.63438 100.983C2.13529 102.155 2.70262 103.299 3.33362 104.407C3.38208 104.479 3.40942 104.564 3.41255 104.65C3.41568 104.737 3.39447 104.823 3.35132 104.899C3.30818 104.974 3.2448 105.036 3.16834 105.078C3.09187 105.119 3.00536 105.138 2.91854 105.133Z" fill="#407BFF"/>
<path d="M160.454 207.658H111.215V217.75H160.454V207.658Z" fill="white"/>
<path opacity="0.1" d="M160.454 207.658H111.215V217.75H160.454V207.658Z" fill="black"/>
<path opacity="0.1" d="M131.956 207.658H111.215V217.75H131.956V207.658Z" fill="black"/>
<path opacity="0.1" d="M111.215 209.111H155.045L111.215 210.356V209.111Z" fill="black"/>
<path opacity="0.1" d="M160.454 210.862L122.461 211.809H160.454V210.862Z" fill="black"/>
<path opacity="0.1" d="M113.226 213.69L131.957 212.925L159.495 213.69L131.957 214.118L113.226 213.69Z" fill="black"/>
<path opacity="0.1" d="M111.215 215.83H143.669L111.215 216.596V215.83Z" fill="black"/>
<path opacity="0.1" d="M160.377 216.596L138.702 216.998H160.454L160.377 216.596Z" fill="black"/>
<path d="M153.605 197.567H104.366V207.658H153.605V197.567Z" fill="white"/>
<path opacity="0.1" d="M153.605 197.567H104.366V207.658H153.605V197.567Z" fill="black"/>
<path opacity="0.1" d="M125.107 197.567H104.366V207.658H125.107V197.567Z" fill="black"/>
<path opacity="0.1" d="M104.366 199.02H148.196L104.366 200.252V199.02Z" fill="black"/>
<path opacity="0.1" d="M153.606 200.771L115.613 201.718H153.606V200.771Z" fill="black"/>
<path opacity="0.1" d="M106.364 203.598L125.094 202.82L152.632 203.598L125.094 204.026L106.364 203.598Z" fill="black"/>
<path opacity="0.1" d="M104.366 205.726H136.82L104.366 206.504V205.726Z" fill="black"/>
<path opacity="0.1" d="M153.528 206.504L131.853 206.906H153.605L153.528 206.504Z" fill="black"/>
<path d="M159.222 187.462H109.983V197.554H159.222V187.462Z" fill="white"/>
<path opacity="0.1" d="M159.222 187.462H109.983V197.554H159.222V187.462Z" fill="black"/>
<path opacity="0.1" d="M130.724 187.462H109.983V197.554H130.724V187.462Z" fill="black"/>
<path opacity="0.1" d="M109.983 188.915H153.813L109.983 190.16V188.915Z" fill="black"/>
<path opacity="0.1" d="M159.222 190.666L121.229 191.613H159.222V190.666Z" fill="black"/>
<path opacity="0.1" d="M111.994 193.494L130.724 192.728L158.262 193.494L130.724 193.922L111.994 193.494Z" fill="black"/>
<path opacity="0.1" d="M109.983 195.634H142.437L109.983 196.399V195.634Z" fill="black"/>
<path opacity="0.1" d="M159.157 196.399L137.482 196.801H159.222L159.157 196.399Z" fill="black"/>
<path d="M192.026 217.542L193.297 212.704H245.909L270.126 215.13L271.047 217.542H192.026Z" fill="#263238"/>
<path opacity="0.4" d="M245.909 212.704V217.542H192.026L193.297 212.704H245.909Z" fill="black"/>
<path d="M235.337 189.55C235.408 190.137 235.352 190.732 235.173 191.295C234.994 191.858 234.697 192.377 234.302 192.815C233.906 193.254 233.421 193.603 232.879 193.839C232.337 194.074 231.751 194.191 231.161 194.181H150.583C149.323 194.154 148.116 193.669 147.187 192.817C146.259 191.964 145.672 190.803 145.537 189.55L140.751 137.964C140.699 137.46 140.734 136.951 140.855 136.459C141.078 135.553 141.603 134.75 142.343 134.182C143.083 133.614 143.995 133.315 144.927 133.333H225.557C226.817 133.36 228.024 133.845 228.952 134.698C229.881 135.55 230.468 136.711 230.603 137.964L235.337 189.55Z" fill="#263238"/>
<path opacity="0.4" d="M230.875 194.181H150.583C149.323 194.154 148.116 193.669 147.187 192.817C146.259 191.964 145.672 190.803 145.537 189.55L140.751 137.964C140.699 137.46 140.734 136.951 140.855 136.459H221.147C222.407 136.486 223.614 136.971 224.542 137.824C225.471 138.676 226.057 139.837 226.193 141.09L230.979 192.677C231.031 193.18 230.996 193.689 230.875 194.181Z" fill="black"/>
<path d="M175.513 162.544H192.182L187.745 210.266L214.103 214.222V217.542H158.586V214.222L169.962 210.266L175.513 162.544Z" fill="#263238"/>
<path opacity="0.1" d="M192.182 162.544L179.834 216.79L169.962 216.492L175.514 162.544H192.182Z" fill="white"/>
<path d="M192.104 425.615H184.166L169.884 226.83H180.43L192.104 425.615Z" fill="#263238"/>
<path opacity="0.4" d="M192.117 425.615H184.166L170.585 236.714L169.884 227.154H180.43L181.001 236.714L192.117 425.615Z" fill="white"/>
<path opacity="0.2" d="M181.001 236.234H170.585L169.884 227.154H180.43L181.001 236.234Z" fill="black"/>
<path d="M250.423 425.615H242.485L241.188 226.83H251.72L250.423 425.615Z" fill="#263238"/>
<path opacity="0.5" d="M251.733 227.154L251.526 259.232L250.436 425.615H242.485L241.395 259.232L241.188 227.154H251.733Z" fill="white"/>
<path opacity="0.2" d="M251.733 227.154L251.526 259.582H241.395L241.188 227.154H251.733Z" fill="black"/>
<path d="M334.788 425.615H326.85L312.568 226.83H323.114L334.788 425.615Z" fill="#263238"/>
<path opacity="0.5" d="M334.801 425.615H326.85L313.269 236.714L312.568 227.154H323.114L323.685 236.714L334.801 425.615Z" fill="white"/>
<path opacity="0.2" d="M323.685 236.234H313.269L312.568 227.154H323.114L323.685 236.234Z" fill="black"/>
<path d="M101.201 425.615H93.2627L104.937 226.83H115.482L101.201 425.615Z" fill="#263238"/>
<path opacity="0.5" d="M115.482 227.154L114.782 236.714L101.201 425.615H93.2627L104.366 236.714L104.937 227.154H115.482Z" fill="white"/>
<path opacity="0.2" d="M104.937 227.154H115.483L114.782 236.234H104.366L104.937 227.154Z" fill="black"/>
<path d="M96.584 221.875H331.468V229.022C331.468 229.39 331.395 229.754 331.254 230.094C331.114 230.434 330.907 230.743 330.647 231.003C330.387 231.263 330.078 231.47 329.738 231.611C329.398 231.751 329.034 231.824 328.666 231.824H99.3858C98.6427 231.824 97.93 231.529 97.4046 231.003C96.8792 230.478 96.584 229.765 96.584 229.022V221.875Z" fill="#407BFF"/>
<path opacity="0.6" d="M96.584 221.875H331.468V229.022C331.468 229.39 331.395 229.754 331.254 230.094C331.114 230.434 330.907 230.743 330.647 231.003C330.387 231.263 330.078 231.47 329.738 231.611C329.398 231.751 329.034 231.824 328.666 231.824H99.3858C98.6427 231.824 97.93 231.529 97.4046 231.003C96.8792 230.478 96.584 229.765 96.584 229.022V221.875Z" fill="white"/>
<path opacity="0.2" d="M331.468 221.862H96.584V226.843H331.468V221.862Z" fill="black"/>
<path d="M336.397 223.172H91.6548C90.9117 223.172 90.1991 222.877 89.6737 222.351C89.1482 221.826 88.853 221.113 88.853 220.37C88.853 219.626 89.1478 218.912 89.6729 218.384C90.1979 217.857 90.9105 217.559 91.6548 217.555H336.397C337.141 217.559 337.854 217.857 338.379 218.384C338.904 218.912 339.199 219.626 339.199 220.37C339.199 221.113 338.903 221.826 338.378 222.351C337.853 222.877 337.14 223.172 336.397 223.172Z" fill="#407BFF"/>
<path opacity="0.6" d="M336.397 223.172H91.6548C90.9117 223.172 90.1991 222.877 89.6737 222.351C89.1482 221.826 88.853 221.113 88.853 220.37C88.853 219.626 89.1478 218.912 89.6729 218.384C90.1979 217.857 90.9105 217.559 91.6548 217.555H336.397C337.141 217.559 337.854 217.857 338.379 218.384C338.904 218.912 339.199 219.626 339.199 220.37C339.199 221.113 338.903 221.826 338.378 222.351C337.853 222.877 337.14 223.172 336.397 223.172Z" fill="white"/>
<path d="M278.493 208.904L281.502 204.39C281.799 203.946 282.2 203.583 282.671 203.332C283.141 203.081 283.667 202.949 284.2 202.95H288.014C288.33 202.951 288.645 202.999 288.948 203.092L302.554 207.217C303.328 207.448 303.986 207.962 304.396 208.657L306.355 211.939L278.493 208.904Z" fill="#407BFF"/>
<path opacity="0.2" d="M306.355 211.939L286.522 209.786L278.467 208.904L281.476 204.39C281.773 203.946 282.174 203.583 282.645 203.332C283.115 203.081 283.641 202.949 284.174 202.95H287.988C288.309 202.952 288.627 203 288.935 203.092L289.233 203.183L302.528 207.217C303.306 207.446 303.969 207.961 304.383 208.657L306.355 211.939Z" fill="black"/>
<path opacity="0.2" d="M306.355 211.939L286.522 209.786L289.233 203.183L302.529 207.217C303.306 207.446 303.969 207.961 304.383 208.657L306.355 211.939Z" fill="black"/>
<path d="M315.772 217.114V217.542H273.719L275.276 211.459C275.564 210.342 276.217 209.352 277.131 208.647C278.045 207.943 279.168 207.563 280.322 207.568H298.974C299.594 207.565 300.21 207.674 300.79 207.892L303.125 208.761L312.387 212.211C313.386 212.582 314.248 213.251 314.853 214.128C315.459 215.006 315.78 216.048 315.772 217.114Z" fill="#407BFF"/>
<path opacity="0.2" d="M315.773 217.114V217.542H298.508L299.429 210.966C299.488 210.558 299.638 210.169 299.867 209.827C300.096 209.484 300.399 209.197 300.754 208.987C301.108 208.777 301.505 208.649 301.916 208.612C302.326 208.575 302.739 208.63 303.126 208.774L312.387 212.224C313.385 212.594 314.245 213.261 314.85 214.136C315.456 215.011 315.778 216.051 315.773 217.114Z" fill="black"/>
<path d="M301.192 213.08L306.692 196.594C306.746 196.426 306.836 196.272 306.955 196.142C307.075 196.012 307.222 195.911 307.385 195.844C307.548 195.777 307.724 195.747 307.9 195.755C308.076 195.764 308.248 195.811 308.404 195.893C308.644 196.03 308.833 196.24 308.945 196.492C309.057 196.744 309.086 197.025 309.027 197.294L304.396 214.883C304.396 214.883 301.322 216.129 301.192 213.08Z" fill="#263238"/>
<path opacity="0.2" d="M278.493 216.18H276.054L276.521 213.781H278.96L278.493 216.18Z" fill="black"/>
<path opacity="0.2" d="M282.125 216.09H279.687L280.153 213.69H282.592L282.125 216.09Z" fill="black"/>
</svg>
