<svg width="27" height="25" viewBox="0 0 27 25" fill="none" xmlns="http://www.w3.org/2000/svg">
<path fill-rule="evenodd" clip-rule="evenodd" d="M13.0529 0C5.84119 0 0 5.73524 0 12.8162C0 18.4873 3.73641 23.2774 8.92495 24.9755C9.5776 25.0877 9.82234 24.7032 9.82234 24.3667C9.82234 24.0624 9.80602 23.0531 9.80602 21.9797C6.52647 22.5725 5.67803 21.1947 5.41697 20.4738C5.27013 20.1054 4.63379 18.9679 4.07904 18.6636C3.62219 18.4232 2.96954 17.8305 4.06273 17.8145C5.09065 17.7985 5.82488 18.7437 6.06962 19.1281C7.24438 21.0666 9.12074 20.5219 9.87129 20.1855C9.9855 19.3524 10.3281 18.7917 10.7034 18.4713C7.79913 18.1509 4.76432 17.0455 4.76432 12.1433C4.76432 10.7496 5.27013 9.59611 6.10225 8.69898C5.97172 8.37857 5.51487 7.06492 6.23278 5.30269C6.23278 5.30269 7.32596 4.96627 9.82234 6.61635C10.8666 6.32799 11.9761 6.1838 13.0856 6.1838C14.1951 6.1838 15.3046 6.32799 16.3488 6.61635C18.8452 4.95025 19.9384 5.30269 19.9384 5.30269C20.6563 7.06492 20.1994 8.37857 20.0689 8.69898C20.901 9.59611 21.4068 10.7335 21.4068 12.1433C21.4068 17.0615 18.3557 18.1509 15.4514 18.4713C15.9246 18.8718 16.3325 19.6408 16.3325 20.8423C16.3325 22.5565 16.3162 23.9342 16.3162 24.3667C16.3162 24.7032 16.5609 25.1037 17.2136 24.9755C19.8048 24.1165 22.0564 22.4814 23.6516 20.3001C25.2467 18.1189 26.1051 15.5015 26.1059 12.8162C26.1059 5.73524 20.2647 0 13.0529 0Z" fill="#03419A"/>
</svg>
