<svg width="584" height="480" viewBox="0 0 584 480" fill="none" xmlns="http://www.w3.org/2000/svg">
<path opacity="0.1" d="M431.842 83.4077C414.029 63.1612 400.24 38.9906 378.95 22.4596C345.509 -3.54069 297.38 -6.07652 258.278 10.2619C219.175 26.6004 188.69 59.534 168.613 96.8251C158.052 116.446 149.756 137.848 134.281 153.881C121.199 167.427 104.004 176.07 87.7017 185.483C61.4406 200.626 36.1273 218.906 19.1178 243.999C2.10839 269.093 -5.49686 302.051 5.37697 330.33C12.7092 349.413 27.478 364.596 42.6082 378.342C60.4127 394.504 79.5503 409.679 101.635 419.268C129.27 431.249 159.98 433.825 190.08 435.045C243.441 437.198 296.888 435.589 350.023 430.23C393.534 425.849 438.363 418.37 474.767 394.159C525.763 360.254 552.056 298.135 557.975 237.218C560.384 212.855 559.774 187.537 550.361 164.931C527.851 110.86 467.113 123.507 431.842 83.4077Z" fill="#568AFF"/>
<path d="M215.907 191.967C215.907 191.967 195.725 188.42 190.071 202.399C184.418 216.378 190.071 264.655 190.071 264.655L265.369 317.924L215.907 191.967Z" fill="#3F3D56"/>
<path d="M310.752 406.975L281.543 415.617C279.505 416.215 277.313 415.982 275.446 414.968C273.58 413.954 272.191 412.243 271.585 410.209C270.987 408.172 271.22 405.981 272.235 404.116C273.249 402.251 274.962 400.864 276.998 400.258L306.198 391.623C308.235 391.025 310.427 391.257 312.293 392.27C314.159 393.282 315.548 394.991 316.156 397.024C316.755 399.059 316.522 401.249 315.51 403.114C314.497 404.979 312.786 406.367 310.752 406.975Z" fill="#568AFF"/>
<path d="M322.244 428.531C323.941 421.299 319.45 414.061 312.213 412.365C304.976 410.669 297.733 415.156 296.036 422.388C294.338 429.62 298.829 436.857 306.066 438.553C313.303 440.25 320.546 435.762 322.244 428.531Z" fill="#25233A"/>
<path d="M306.712 433.408C310.429 433.408 313.442 430.397 313.442 426.683C313.442 422.969 310.429 419.959 306.712 419.959C302.995 419.959 299.982 422.969 299.982 426.683C299.982 430.397 302.995 433.408 306.712 433.408Z" fill="#3F3D56"/>
<path d="M264.699 421.68C269.955 416.428 269.955 407.912 264.699 402.66C259.442 397.407 250.92 397.407 245.664 402.66C240.407 407.912 240.407 416.428 245.664 421.68C250.92 426.933 259.442 426.933 264.699 421.68Z" fill="#25233A"/>
<path d="M259.49 413.378C259.49 414.708 259.096 416.009 258.356 417.114C257.617 418.22 256.566 419.082 255.336 419.591C254.106 420.1 252.753 420.233 251.448 419.974C250.142 419.714 248.943 419.074 248.002 418.133C247.061 417.193 246.42 415.995 246.16 414.69C245.9 413.386 246.034 412.034 246.543 410.805C247.052 409.576 247.915 408.526 249.022 407.787C250.128 407.048 251.429 406.654 252.761 406.654C254.545 406.656 256.255 407.365 257.517 408.626C258.779 409.886 259.488 411.595 259.49 413.378Z" fill="url(#paint0_linear_92_101)"/>
<path d="M251.283 444.009C258.717 444.009 264.743 437.987 264.743 430.559C264.743 423.131 258.717 417.11 251.283 417.11C243.849 417.11 237.823 423.131 237.823 430.559C237.823 437.987 243.849 444.009 251.283 444.009Z" fill="#25233A"/>
<path d="M261.916 431.009C261.916 432.339 261.521 433.639 260.782 434.745C260.042 435.851 258.991 436.713 257.761 437.222C256.532 437.731 255.178 437.864 253.873 437.604C252.567 437.345 251.368 436.704 250.427 435.764C249.486 434.823 248.845 433.625 248.585 432.321C248.326 431.016 248.459 429.664 248.968 428.435C249.478 427.207 250.34 426.156 251.447 425.417C252.554 424.678 253.855 424.284 255.186 424.284C256.971 424.284 258.682 424.993 259.945 426.254C261.207 427.515 261.916 429.225 261.916 431.009Z" fill="#3F3D56"/>
<path d="M311.844 420.167L250.287 407.753C248.206 407.327 246.379 406.095 245.205 404.327C244.031 402.558 243.606 400.397 244.023 398.316C244.449 396.238 245.681 394.414 247.449 393.241C249.217 392.068 251.378 391.642 253.459 392.057L315.016 404.463C317.097 404.888 318.924 406.12 320.098 407.889C321.272 409.658 321.697 411.819 321.28 413.9C320.856 415.979 319.625 417.805 317.857 418.98C316.088 420.154 313.926 420.581 311.844 420.167Z" fill="#568AFF"/>
<path d="M273.898 323.533H290.707V394.271C290.707 396.498 289.822 398.633 288.246 400.207C286.671 401.781 284.534 402.665 282.306 402.665C280.078 402.665 277.942 401.781 276.366 400.207C274.791 398.633 273.906 396.498 273.906 394.271V323.533H273.898Z" fill="#568AFF"/>
<path d="M279.929 415.521L250.729 424.18C248.689 424.78 246.495 424.548 244.627 423.534C242.759 422.52 241.369 420.807 240.762 418.771C240.164 416.734 240.398 414.544 241.412 412.679C242.427 410.814 244.139 409.426 246.175 408.82L275.376 400.186C277.413 399.587 279.604 399.82 281.47 400.832C283.337 401.844 284.726 403.553 285.334 405.586C285.928 407.62 285.693 409.805 284.68 411.666C283.668 413.528 281.96 414.913 279.929 415.521Z" fill="#568AFF"/>
<path d="M284.764 414.662L281.551 415.617C280.594 415.901 279.591 416.002 278.596 415.914L279.937 415.521C280.87 415.247 281.744 414.804 282.515 414.213L284.764 414.662Z" fill="url(#paint1_linear_92_101)"/>
<path d="M316.494 399.303C316.492 401.147 315.85 402.934 314.679 404.358L289.141 399.199C289.783 398.324 290.247 397.331 290.506 396.278L306.238 391.623C307.432 391.279 308.689 391.217 309.91 391.441C311.132 391.664 312.285 392.168 313.279 392.912C314.273 393.657 315.081 394.621 315.638 395.73C316.196 396.839 316.489 398.062 316.494 399.303Z" fill="url(#paint2_linear_92_101)"/>
<path opacity="0.31" d="M274.115 396.181C273.969 395.555 273.896 394.914 273.898 394.271V323.533H279.736V399.768C279.68 400.143 279.699 400.525 279.792 400.892C278.909 400.511 277.96 400.301 276.998 400.274C276.319 400.227 275.637 400.227 274.958 400.274L275.376 400.154C275.632 400.105 274.452 397.626 274.115 396.181Z" fill="url(#paint3_linear_92_101)"/>
<path opacity="0.31" d="M317.249 419.301C316.076 419.948 314.758 420.287 313.418 420.288C312.879 420.286 312.341 420.232 311.812 420.127L284.732 414.662L282.475 414.213C281.703 414.804 280.829 415.247 279.897 415.521L278.556 415.914L250.729 424.18C248.689 424.78 246.495 424.548 244.627 423.534C242.758 422.52 241.369 420.807 240.762 418.771C241.933 419.855 243.445 420.497 245.038 420.588C246.631 420.678 248.206 420.212 249.492 419.269C252.889 416.917 266.413 413.386 274.074 411.509C275.846 411.084 277.457 410.156 278.711 408.835C279.965 407.515 280.81 405.86 281.142 404.07C281.142 403.845 281.214 403.636 281.238 403.428C282.515 404.808 284.86 406.357 289.1 407.673C299.54 410.883 316.494 413.009 316.494 413.009C316.494 413.009 319.553 416.01 317.249 419.301Z" fill="url(#paint4_linear_92_101)"/>
<path d="M320.156 416.604C319.63 417.433 318.951 418.155 318.156 418.731C318.694 418.177 319.385 417.439 320.156 416.604Z" fill="url(#paint5_linear_92_101)"/>
<path d="M274.115 396.181C274.446 397.604 275.143 398.915 276.139 399.985C275.89 400.033 275.633 400.097 275.376 400.17L250.062 407.657C248.18 407.179 246.534 406.036 245.431 404.439C244.327 402.842 243.84 400.9 244.059 398.972C244.279 397.043 245.19 395.26 246.625 393.952C248.059 392.643 249.919 391.899 251.861 391.856C252.4 391.858 252.938 391.911 253.467 392.016L274.115 396.181Z" fill="url(#paint6_linear_92_101)"/>
<path d="M149.933 472.738L164.124 473.219V359.982C164.124 359.982 164.838 330.699 192.497 327.762C220.155 324.825 470.992 288.545 470.992 288.545C470.992 288.545 480.934 287.494 486.644 306.52C492.354 325.547 497.944 400.483 497.944 400.483L574.952 410.834C574.952 410.834 576.984 278.538 549.181 271.244C521.378 263.949 157.779 301.152 157.779 301.152C157.779 301.152 130.812 441.69 149.933 472.738Z" fill="#568AFF"/>
<path d="M149.933 472.738L164.124 473.219V359.982C164.124 359.982 164.838 330.699 192.497 327.762C220.155 324.825 470.992 288.545 470.992 288.545C470.992 288.545 480.934 287.494 486.644 306.52C492.354 325.547 497.944 400.483 497.944 400.483L574.952 410.834C574.952 410.834 576.984 278.538 549.181 271.244C521.378 263.949 157.779 301.152 157.779 301.152C157.779 301.152 130.812 441.69 149.933 472.738Z" fill="url(#paint7_linear_92_101)"/>
<path d="M75.053 315.043C75.053 315.043 82.0078 276.588 130.924 266.509L476.18 226.979C476.18 226.979 510.079 225.575 525.586 234.956C541.094 244.337 563.227 252.113 572.302 294.564C581.377 337.015 583.545 409.535 583.545 409.535L574.968 410.835C574.968 410.835 562.472 279.549 549.197 271.244C535.922 262.938 176.997 313.935 176.997 313.935C176.997 313.935 152.101 318.887 149.933 355.753C147.765 392.618 149.933 472.738 149.933 472.738L75.053 442.524V315.043Z" fill="#568AFF"/>
<path opacity="0.19" d="M430.299 241.777C412.431 239.449 394.417 237.764 376.412 238.446C362.88 238.976 349.436 240.854 336.017 242.724L217.665 259.263C215.658 259.543 213.369 260.001 212.365 261.766C210.438 265.137 214.967 268.459 218.637 269.743C257.989 283.529 300.03 297.493 340.538 287.662C359.057 283.168 376.26 273.836 395.044 270.594C413.828 267.352 433.11 270.337 451.854 267.279C469.474 264.406 486.251 256.245 504.111 256.165C509.588 256.165 515.226 256.871 520.422 255.138C525.618 253.405 530.212 248.108 528.774 242.828C512.006 242.242 493.181 239.144 476.734 242.507C460.456 245.829 446.602 241.777 430.299 241.777Z" fill="url(#paint8_linear_92_101)"/>
<path d="M323.272 261.935L323.962 264.575C323.962 264.575 344.409 277.278 344.281 277.688C344.152 278.097 429.095 257.409 429.095 257.409L431.07 251.471L323.272 261.935Z" fill="url(#paint9_linear_92_101)"/>
<path d="M325.183 261.935L399.911 245.107L431.063 251.471L346.168 272.808L325.183 261.935Z" fill="url(#paint10_linear_92_101)"/>
<path d="M301.661 275.264L319.401 275.858C319.401 275.858 323.906 276.123 325.071 272.704C326.235 269.286 317.883 262.071 316.944 261.935C316.004 261.798 292.698 267.994 296.063 274.189L301.661 275.264Z" fill="url(#paint11_linear_92_101)"/>
<path d="M96.608 449.859L87.9747 476.052C62.9344 484.935 41.6445 476.052 41.6445 476.052L35.4527 448.599C35.4527 448.599 66.6848 458.927 96.608 449.859Z" fill="#568AFF"/>
<path d="M96.608 449.859L87.9747 476.052C62.9344 484.935 41.6445 476.052 41.6445 476.052L35.4527 448.599C35.4527 448.599 66.6848 458.927 96.608 449.859Z" fill="url(#paint12_linear_92_101)"/>
<path d="M106.398 425.472L103.627 446.184L96.6079 449.859C66.7089 458.919 35.4527 448.599 35.4527 448.599L30.0639 444.587L27.5503 425.472H106.398Z" fill="#568AFF"/>
<path d="M106.398 425.472L103.627 446.184L96.6079 449.859C66.7089 458.919 35.4527 448.599 35.4527 448.599L30.0639 444.587L27.5503 425.472H106.398Z" fill="url(#paint13_linear_92_101)"/>
<path d="M66.9659 432.558C88.7345 432.558 106.382 429.385 106.382 425.472C106.382 421.558 88.7345 418.386 66.9659 418.386C45.1972 418.386 27.5503 421.558 27.5503 425.472C27.5503 429.385 45.1972 432.558 66.9659 432.558Z" fill="#568AFF"/>
<path d="M66.9659 432.558C88.7345 432.558 106.382 429.385 106.382 425.472C106.382 421.558 88.7345 418.386 66.9659 418.386C45.1972 418.386 27.5503 421.558 27.5503 425.472C27.5503 429.385 45.1972 432.558 66.9659 432.558Z" fill="url(#paint14_linear_92_101)"/>
<path d="M48.2138 267.368C44.3429 265.538 40.1829 264.158 36.834 261.485C30.088 256.053 28.3774 246.696 26.2653 238.302C24.1532 229.908 20.0735 220.647 11.7374 218.24C8.62145 217.349 4.96739 217.702 2.59828 219.917C0.100667 222.268 -0.405279 226.12 0.277347 229.483C0.959974 232.845 2.62237 235.902 3.90731 239.112C6.90748 246.568 7.82083 254.698 6.54948 262.633C5.49743 269.141 2.98376 275.737 4.59797 282.117C7.3365 292.943 20.981 299.29 21.3584 310.445C21.6154 317.972 15.4156 324.937 16.821 332.344C17.857 337.825 22.9084 342.102 23.1815 347.672C23.4866 353.987 17.5116 359.331 17.8008 365.647C18.0899 371.962 24.4022 376.208 28.522 381.143C31.9758 385.315 34.0295 390.466 34.3926 395.868C34.6094 399.239 34.1758 402.729 35.276 405.923C36.0791 408.259 37.6853 410.241 38.93 412.343C40.3033 414.614 41.3393 417.07 42.9937 419.172C45.0735 421.792 47.8921 423.727 51.0848 424.729C54.2776 425.73 57.6977 425.752 60.9026 424.79C62.1795 416.396 61.0632 407.833 61.4165 399.351C62.1152 382.916 68.3392 366.353 64.3559 350.4C62.8942 344.55 60.0834 338.997 59.5855 332.994C59.1438 327.634 60.5733 322.321 61.5691 317.033C63.625 306.111 63.5929 294.82 62.7497 283.778C62.0831 275.047 55.9154 271.011 48.2138 267.368Z" fill="#568AFF"/>
<path d="M72.8284 310.413C72.7642 317.739 74.4346 325.315 72.0896 332.272C70.3147 337.544 66.4117 341.862 64.396 347.046C59.7461 359.011 66.0021 372.428 64.7252 385.203C64.1952 390.468 62.3882 395.523 61.2479 400.691C59.8181 407.232 59.4574 413.961 60.1797 420.617C60.1011 421.823 60.4595 423.017 61.1895 423.98C61.9194 424.944 62.9721 425.613 64.155 425.865C68.0901 427.364 72.1663 428.464 76.3218 429.147C74.9076 421.388 76.3875 413.38 80.4818 406.638C86.8503 396.205 99.226 389.176 101.531 377.195C103.089 369.082 99.4589 360.848 99.7158 352.591C99.8972 347.096 101.789 341.794 105.129 337.424C108.124 333.524 112.18 330.507 114.967 326.462C121.664 316.712 119.576 303.68 117.585 292.02C115.593 280.36 114.436 266.942 122.307 258.107C124.796 255.314 128.041 253.22 130.297 250.235C135.325 243.582 134.056 233.335 128.209 227.388C122.363 221.442 112.951 219.797 105 222.413C101.708 223.504 98.5755 225.342 96.5356 228.167C92.5202 233.864 94.1263 241.648 95.8289 248.421C97.3146 254.303 98.5112 261.092 96.4794 267.023C94.9616 271.436 91.1148 273.828 87.8462 276.901C78.6428 285.528 72.9328 297.757 72.8284 310.413Z" fill="#568AFF"/>
<path d="M64.5325 375.333C63.3921 383.293 61.7458 391.318 61.4085 399.303C61.4085 399.576 61.4085 399.841 61.4085 400.105C61.4085 400.37 61.3121 400.491 61.2719 400.683C59.8422 407.224 59.4815 413.953 60.2038 420.609C60.2562 421.699 60.5468 422.764 61.0551 423.73C61.015 424.067 60.9668 424.396 60.9186 424.733C57.7137 425.695 54.2936 425.674 51.1009 424.673C47.9081 423.671 45.0895 421.736 43.0097 419.116C41.4035 417.014 40.3193 414.558 38.9461 412.287C37.6611 410.176 36.0951 408.194 35.292 405.867C34.1918 402.657 34.6254 399.182 34.4086 395.812C34.0455 390.41 31.9918 385.258 28.538 381.087C24.4182 376.151 18.0979 372.011 17.8168 365.591C17.5357 359.171 23.5026 353.931 23.1975 347.615C22.9244 342.046 17.873 337.769 16.837 332.288C15.4316 324.881 21.6555 317.916 21.3745 310.388C20.997 299.234 7.35252 292.886 4.61399 282.061C3.00781 275.681 5.51345 269.085 6.5655 262.577C7.83685 254.642 6.9235 246.512 3.92333 239.056C2.63839 235.846 0.975995 232.821 0.293369 229.426C-0.389257 226.032 0.116689 222.204 2.6143 219.861C5.02357 217.646 8.63746 217.293 11.7535 218.184C20.0895 220.591 24.1612 229.852 26.2813 238.246C28.4015 246.64 30.104 255.996 36.85 261.429C40.1828 264.118 44.3589 265.482 48.2298 267.311C55.9394 270.955 62.1072 274.991 62.7657 283.674C63.5688 294.716 63.6411 306.007 61.5851 316.929C60.5893 322.217 59.1759 327.529 59.6015 332.89C60.0272 338.25 62.3642 343.322 63.89 348.522C64.0587 349.108 64.2273 349.702 64.3719 350.296C66.3957 358.553 65.7452 366.907 64.5325 375.333Z" fill="url(#paint15_linear_92_101)"/>
<path d="M61.0632 423.738C60.5549 422.772 60.2643 421.707 60.2119 420.617C59.4895 413.961 59.8502 407.232 61.28 400.691C61.3202 400.499 61.3684 400.306 61.4165 400.113C61.1355 407.994 62.051 415.938 61.0632 423.738Z" fill="url(#paint16_linear_92_101)"/>
<path d="M130.265 250.235C128.009 253.22 124.764 255.314 122.275 258.107C114.404 266.934 115.561 280.36 117.552 292.02C119.544 303.68 121.632 316.712 114.934 326.462C112.148 330.474 108.092 333.524 105.097 337.424C101.757 341.794 99.8651 347.096 99.6838 352.591C99.4268 360.848 103.057 369.082 101.499 377.195C99.1939 389.176 86.8183 396.221 80.4498 406.638C76.3665 413.384 74.898 421.392 76.3219 429.147C72.1772 428.462 68.1119 427.362 64.1872 425.865C63.1134 425.548 62.1397 424.959 61.3603 424.156C61.2496 424.025 61.1502 423.886 61.0632 423.738C60.5549 422.772 60.2643 421.707 60.2119 420.617C59.4895 413.961 59.8502 407.232 61.28 400.691C61.3202 400.499 61.3684 400.306 61.4165 400.113C62.5569 395.146 64.2434 390.275 64.7574 385.203C65.0341 381.915 64.9695 378.608 64.5647 375.333C65.7773 366.907 66.4278 358.553 64.3799 350.352C64.2354 349.758 64.0667 349.164 63.8981 348.578C64.0507 348.065 64.2274 347.551 64.4281 347.046C66.4439 341.862 70.3469 337.544 72.1217 332.272C74.4587 325.315 72.7963 317.739 72.8606 310.413C72.965 297.757 78.6749 285.536 87.8462 276.901C91.1148 273.828 94.9616 271.436 96.4794 267.023C98.5112 261.092 97.2825 254.303 95.8289 248.421C94.1183 241.648 92.4961 233.864 96.5356 228.167C98.5434 225.342 101.708 223.504 105 222.413C112.919 219.797 122.371 221.442 128.209 227.388C134.048 233.335 135.293 243.622 130.265 250.235Z" fill="url(#paint17_linear_92_101)"/>
<path d="M272.613 124.35C272.613 124.35 238.827 129.51 223.199 166.32C207.571 203.129 215.698 248.798 215.971 252.771C216.244 256.743 263.859 274.189 277.472 274.189C291.084 274.189 293.919 260.723 293.919 260.723L269.866 250.604L342.948 242.266H356.07L348.842 254.263C348.842 254.263 363.105 255.74 372.638 256.077C382.17 256.414 388.643 237.788 389.711 228.528C390.78 219.267 347.605 138.056 341.157 133.169C334.708 128.282 317.168 116.63 272.613 124.35Z" fill="#568AFF"/>
<path d="M313.113 55.4415C313.113 55.4415 319.096 58.852 318.558 69.886C318.02 80.9201 314.647 97.5234 311.242 101.825C307.836 106.126 295.927 107.811 295.927 107.811C295.927 107.811 302.424 123.451 307.258 127.488C312.093 131.524 302.4 146.394 292.971 141.515C283.543 136.636 272.613 124.35 272.613 124.35C272.613 124.35 280.475 109.593 277.817 101.825C275.159 94.0567 264.968 66.8286 272.613 59.3656C280.258 51.9025 296.617 41.2617 313.113 55.4415Z" fill="url(#paint18_linear_92_101)"/>
<path opacity="0.5" d="M258.936 177.37L253.644 242.266L269.826 250.604L282.997 248.349L266.566 228.536L258.936 177.37Z" fill="white"/>
<path opacity="0.5" d="M344.281 174.096C344.281 174.096 365.442 224.419 356.062 242.266L348.834 240.878L344.281 174.096Z" fill="white"/>
<path d="M285.125 258.396C285.125 258.396 277.046 265.618 280.652 271.236C284.258 276.853 288.562 276.692 292.152 274.181C295.742 271.669 302.793 265.706 311.193 268.443C319.594 271.179 321.633 272.921 321.633 272.921C321.633 272.921 326.059 270.024 324.91 267.119C323.762 264.214 314.976 254.801 312.43 253.549C309.884 252.297 299.316 256.077 299.316 256.077C299.316 256.077 291.55 253.91 285.125 258.396Z" fill="url(#paint19_linear_92_101)"/>
<path d="M358.463 244.842C358.463 244.842 350.77 245.725 348.826 250.604C346.883 255.483 346.184 256.077 346.184 256.077C346.184 256.077 350.529 256.879 352.336 254.608C354.143 252.337 356.022 253.292 356.022 253.292L355.484 256.205C355.484 256.205 367.289 257.922 372.622 256.077C377.954 254.231 380.243 252.064 380.243 252.064L382.331 247.137C382.331 247.137 377.296 243.614 373.497 243.069C369.698 242.523 358.463 244.842 358.463 244.842Z" fill="url(#paint20_linear_92_101)"/>
<path d="M397.509 299.098C397.509 299.098 423.714 319.031 421.385 345.994C419.056 372.958 415.635 412.993 415.635 412.993C415.635 412.993 405.066 417.439 398.063 412.993C391.061 408.547 386.82 347.712 383.351 341.902C379.882 336.092 359.009 309.899 336.707 307.644L397.509 299.098Z" fill="#25233A"/>
<path d="M265.369 317.892C265.369 317.892 278.002 329.929 300.52 333.708C323.039 337.488 333.535 340.642 340.418 359.99C347.3 379.337 353.902 420.978 356.062 425.632C358.222 430.287 367.41 427.911 367.41 427.911C367.41 427.911 372.606 421.957 372.606 388.847C372.606 342.688 375.818 333.227 364.245 321.631C352.673 310.035 342.144 306.874 342.144 306.874L265.369 317.892Z" fill="#3F3D56"/>
<path d="M356.062 425.632L358.206 442.524H362.222C362.222 442.524 388.081 443.937 388.892 443.327C389.703 442.717 387.647 429.95 377.85 430.311C368.052 430.672 367.41 427.903 367.41 427.903L356.062 425.632Z" fill="#25233A"/>
<path d="M401.228 414.381L405.404 431.009L451.035 424.749C451.035 424.749 452.642 413.828 438.186 414.911C434.371 415.192 431.528 417.872 426.943 417.896C422.357 417.92 417.964 416.043 415.651 412.993L401.228 414.381Z" fill="#25233A"/>
<path d="M560.344 205.208L387.623 214.452C386.597 214.507 385.57 214.352 384.605 213.997C383.641 213.642 382.759 213.095 382.013 212.388C381.267 211.682 380.672 210.831 380.266 209.888C379.859 208.944 379.649 207.928 379.649 206.901V84.5954C379.648 82.2136 380.582 79.9265 382.25 78.2251C383.919 76.5237 386.188 75.5437 388.571 75.4953L560.585 71.9484C561.691 71.926 562.791 72.1245 563.82 72.5322C564.849 72.94 565.787 73.5488 566.577 74.323C567.368 75.0973 567.996 76.0213 568.424 77.0411C568.853 78.061 569.074 79.156 569.073 80.2621V196.003C569.073 198.362 568.167 200.631 566.543 202.343C564.92 204.055 562.701 205.08 560.344 205.208Z" fill="#568AFF"/>
<path d="M568.311 205.208L395.59 214.452C394.564 214.506 393.538 214.35 392.575 213.994C391.611 213.639 390.73 213.092 389.985 212.385C389.239 211.679 388.646 210.828 388.24 209.886C387.834 208.943 387.624 207.927 387.623 206.901V84.5954C387.621 82.2143 388.553 79.9271 390.22 78.2255C391.887 76.5239 394.155 75.5436 396.538 75.4953L568.551 71.9483C569.659 71.9248 570.76 72.1225 571.79 72.5298C572.82 72.937 573.758 73.5457 574.549 74.32C575.341 75.0944 575.969 76.0188 576.398 77.0392C576.827 78.0595 577.048 79.1552 577.048 80.262V196.003C577.045 198.363 576.138 200.632 574.513 202.344C572.888 204.056 570.669 205.08 568.311 205.208Z" fill="#568AFF"/>
<path d="M568.311 205.208L395.59 214.452C394.564 214.506 393.538 214.35 392.575 213.994C391.611 213.639 390.73 213.092 389.985 212.385C389.239 211.679 388.646 210.828 388.24 209.886C387.834 208.943 387.624 207.927 387.623 206.901V84.5954C387.621 82.2143 388.553 79.9271 390.22 78.2255C391.887 76.5239 394.155 75.5436 396.538 75.4953L568.551 71.9483C569.659 71.9248 570.76 72.1225 571.79 72.5298C572.82 72.937 573.758 73.5457 574.549 74.32C575.341 75.0944 575.969 76.0188 576.398 77.0392C576.827 78.0595 577.048 79.1552 577.048 80.262V196.003C577.045 198.363 576.138 200.632 574.513 202.344C572.888 204.056 570.669 205.08 568.311 205.208Z" fill="url(#paint21_linear_92_101)"/>
<path d="M518.021 251.406L474.164 256.077C474.164 256.077 460.809 253.38 461.532 251.406C462.255 249.432 476.204 247.53 476.204 247.53V167.957C476.084 167.78 474.245 165.437 469.209 163.944C468.233 163.657 467.241 163.427 466.238 163.254C465.375 163.129 464.536 162.875 463.748 162.5C460.753 160.951 464.061 158.255 468.711 158.134C469.439 158.111 470.168 158.154 470.888 158.263H504.618C504.618 158.263 517.387 161.858 518.005 179.801C518.623 197.745 518.021 251.406 518.021 251.406Z" fill="#568AFF"/>
<path d="M482.332 251.575L474.14 256.077C474.14 256.077 460.785 253.38 461.508 251.406C462.23 249.432 476.18 247.53 476.18 247.53V167.957C476.011 167.772 473.963 165.662 469.185 163.944C467.407 163.317 465.58 162.833 463.724 162.5C460.729 160.951 464.037 158.255 468.687 158.134C472.646 158.672 480.444 163.005 480.95 165.477C481.456 167.949 482.332 251.575 482.332 251.575Z" fill="#568AFF"/>
<path d="M482.332 251.575L474.14 256.077C474.14 256.077 460.785 253.38 461.508 251.406C462.23 249.432 476.18 247.53 476.18 247.53V167.957C476.011 167.772 473.963 165.662 469.185 163.944C467.407 163.317 465.58 162.833 463.724 162.5C460.729 160.951 464.037 158.255 468.687 158.134C472.646 158.672 480.444 163.005 480.95 165.477C481.456 167.949 482.332 251.575 482.332 251.575Z" fill="url(#paint22_linear_92_101)"/>
<path d="M318.156 418.731C317.136 419.774 316.662 420.159 317.265 419.301C317.577 419.136 317.875 418.945 318.156 418.731Z" fill="url(#paint23_linear_92_101)"/>
<path d="M318.467 45.0924C318.004 42.5951 317.012 40.2221 315.555 38.1278C314.099 36.0336 312.21 34.2653 310.013 32.9381V36.5515C300.326 31.9362 290.737 35.5661 280.116 33.8415C281.342 35.1079 282.335 36.5752 283.05 38.1776C276.105 38.1778 269.255 39.7691 263.041 42.8258C263.608 43.6306 264.175 44.4682 264.709 45.2238C264.913 45.4687 265.046 45.7641 265.092 46.0778C265.092 46.7184 264.475 47.1454 263.958 47.5396C260.957 49.7898 260.623 54.1095 260.79 57.8215C261.34 69.0559 265.292 83.0112 268.226 93.8843C269.344 98.0069 270.444 106.097 271.561 110.252L274.896 107.082L277.113 108.61C280.148 103.978 285.387 102.009 286.588 96.6215C283.253 95.866 280.268 83.4149 280.635 80.0478C281.002 76.6808 282.102 75.9252 285.354 77.0093C287.621 77.7484 283.903 73.1823 283.503 71.3263C283.103 69.4704 282.252 67.5815 283.186 65.9883C284.47 63.771 287.821 62.3459 290.222 63.2656C291.268 60.3244 293.253 57.7965 295.881 56.0611C298.508 54.3257 301.637 53.4764 304.796 53.6408C308.131 53.8872 313.555 56.0611 315.55 57.7539C317.751 54.6332 319.118 48.7058 318.467 45.0924Z" fill="#3F3D56"/>
<defs>
<linearGradient id="paint0_linear_92_101" x1="246.031" y1="413.378" x2="259.49" y2="413.378" gradientUnits="userSpaceOnUse">
<stop stop-color="#183866"/>
<stop offset="1" stop-color="#1A7FC1"/>
</linearGradient>
<linearGradient id="paint1_linear_92_101" x1="278.588" y1="415.08" x2="284.764" y2="415.08" gradientUnits="userSpaceOnUse">
<stop/>
<stop offset="0.99" stop-opacity="0"/>
</linearGradient>
<linearGradient id="paint2_linear_92_101" x1="292.361" y1="404.872" x2="329.093" y2="388.457" gradientUnits="userSpaceOnUse">
<stop/>
<stop offset="0.99" stop-opacity="0"/>
</linearGradient>
<linearGradient id="paint3_linear_92_101" x1="291.791" y1="357.197" x2="247.138" y2="372.184" gradientUnits="userSpaceOnUse">
<stop/>
<stop offset="0.99" stop-opacity="0"/>
</linearGradient>
<linearGradient id="paint4_linear_92_101" x1="316.566" y1="405.618" x2="202.119" y2="444.037" gradientUnits="userSpaceOnUse">
<stop/>
<stop offset="0.99" stop-opacity="0"/>
</linearGradient>
<linearGradient id="paint5_linear_92_101" x1="320.437" y1="417.238" x2="316.47" y2="418.572" gradientUnits="userSpaceOnUse">
<stop/>
<stop offset="0.99" stop-opacity="0"/>
</linearGradient>
<linearGradient id="paint6_linear_92_101" x1="276.636" y1="405.875" x2="241.858" y2="396.417" gradientUnits="userSpaceOnUse">
<stop/>
<stop offset="0.99" stop-opacity="0"/>
</linearGradient>
<linearGradient id="paint7_linear_92_101" x1="559.637" y1="361.386" x2="-62.787" y2="391.348" gradientUnits="userSpaceOnUse">
<stop/>
<stop offset="0.99" stop-opacity="0"/>
</linearGradient>
<linearGradient id="paint8_linear_92_101" x1="211.867" y1="264.623" x2="528.999" y2="264.623" gradientUnits="userSpaceOnUse">
<stop stop-color="#183866"/>
<stop offset="1" stop-color="#1A7FC1"/>
</linearGradient>
<linearGradient id="paint9_linear_92_101" x1="376.894" y1="253.372" x2="378.153" y2="268.62" gradientUnits="userSpaceOnUse">
<stop stop-color="#68E1FD"/>
<stop offset="0.2" stop-color="#5DB4CF"/>
<stop offset="0.46" stop-color="#50819B"/>
<stop offset="0.69" stop-color="#475C76"/>
<stop offset="0.87" stop-color="#41455E"/>
<stop offset="0.99" stop-color="#3F3D56"/>
</linearGradient>
<linearGradient id="paint10_linear_92_101" x1="373.031" y1="226.835" x2="382.534" y2="282.641" gradientUnits="userSpaceOnUse">
<stop stop-color="#68E1FD"/>
<stop offset="0.2" stop-color="#5DB4CF"/>
<stop offset="0.46" stop-color="#50819B"/>
<stop offset="0.69" stop-color="#475C76"/>
<stop offset="0.87" stop-color="#41455E"/>
<stop offset="0.99" stop-color="#3F3D56"/>
</linearGradient>
<linearGradient id="paint11_linear_92_101" x1="310.575" y1="257.152" x2="310.399" y2="281.194" gradientUnits="userSpaceOnUse">
<stop stop-color="#68E1FD"/>
<stop offset="0.2" stop-color="#5DB4CF"/>
<stop offset="0.46" stop-color="#50819B"/>
<stop offset="0.69" stop-color="#475C76"/>
<stop offset="0.87" stop-color="#41455E"/>
<stop offset="0.99" stop-color="#3F3D56"/>
</linearGradient>
<linearGradient id="paint12_linear_92_101" x1="107.281" y1="462.153" x2="52.9923" y2="464.226" gradientUnits="userSpaceOnUse">
<stop/>
<stop offset="0.99" stop-opacity="0"/>
</linearGradient>
<linearGradient id="paint13_linear_92_101" x1="115.537" y1="437.26" x2="70.5558" y2="438.811" gradientUnits="userSpaceOnUse">
<stop/>
<stop offset="0.99" stop-opacity="0"/>
</linearGradient>
<linearGradient id="paint14_linear_92_101" x1="72.4831" y1="398.934" x2="49.7647" y2="508.463" gradientUnits="userSpaceOnUse">
<stop/>
<stop offset="0.99" stop-opacity="0"/>
</linearGradient>
<linearGradient id="paint15_linear_92_101" x1="62.1955" y1="424.525" x2="16.4619" y2="215.794" gradientUnits="userSpaceOnUse">
<stop/>
<stop offset="0.99" stop-opacity="0"/>
</linearGradient>
<linearGradient id="paint16_linear_92_101" x1="64.7574" y1="428.706" x2="59.4166" y2="404.317" gradientUnits="userSpaceOnUse">
<stop/>
<stop offset="0.99" stop-opacity="0"/>
</linearGradient>
<linearGradient id="paint17_linear_92_101" x1="58.3407" y1="439.595" x2="109.65" y2="263.808" gradientUnits="userSpaceOnUse">
<stop/>
<stop offset="0.99" stop-opacity="0"/>
</linearGradient>
<linearGradient id="paint18_linear_92_101" x1="269.834" y1="95.477" x2="318.598" y2="95.477" gradientUnits="userSpaceOnUse">
<stop stop-color="#ECC4D7"/>
<stop offset="0.42" stop-color="#EFD4D1"/>
<stop offset="1" stop-color="#F2EAC9"/>
</linearGradient>
<linearGradient id="paint19_linear_92_101" x1="279.736" y1="264.575" x2="325.071" y2="264.575" gradientUnits="userSpaceOnUse">
<stop stop-color="#ECC4D7"/>
<stop offset="0.42" stop-color="#EFD4D1"/>
<stop offset="1" stop-color="#F2EAC9"/>
</linearGradient>
<linearGradient id="paint20_linear_92_101" x1="346.168" y1="249.97" x2="382.315" y2="249.97" gradientUnits="userSpaceOnUse">
<stop stop-color="#ECC4D7"/>
<stop offset="0.42" stop-color="#EFD4D1"/>
<stop offset="1" stop-color="#F2EAC9"/>
</linearGradient>
<linearGradient id="paint21_linear_92_101" x1="586.838" y1="212.51" x2="386.36" y2="79.6879" gradientUnits="userSpaceOnUse">
<stop/>
<stop offset="0.99" stop-opacity="0"/>
</linearGradient>
<linearGradient id="paint22_linear_92_101" x1="552.457" y1="284.035" x2="413.132" y2="154.016" gradientUnits="userSpaceOnUse">
<stop/>
<stop offset="0.99" stop-opacity="0"/>
</linearGradient>
<linearGradient id="paint23_linear_92_101" x1="318.253" y1="419.028" x2="316.904" y2="419.478" gradientUnits="userSpaceOnUse">
<stop/>
<stop offset="0.99" stop-opacity="0"/>
</linearGradient>
</defs>
</svg>
