<svg width="52" height="50" viewBox="0 0 52 50" fill="none" xmlns="http://www.w3.org/2000/svg">
<path d="M51.2385 48.7831L50.18 47.7745C49.6752 47.106 49.111 46.4846 48.4942 45.9179L48.4838 45.9095C47.8614 45.3442 47.2147 44.8065 46.5438 44.2967C46.0061 43.9272 45.2671 43.4819 44.3266 42.961C43.5635 42.6223 42.9552 42.0096 42.6221 41.244L42.6138 41.2231L42.5137 41.1731C42.9555 41.1294 43.3598 41.0481 43.7473 40.9335L43.6994 40.946L44.8872 40.6188C45.3789 40.4646 45.9478 40.3646 46.5375 40.3417H46.55C47.171 40.3167 47.7565 40.2167 48.315 40.052L48.2629 40.0645C48.5324 39.9979 48.8095 39.9222 49.0943 39.8374C49.3791 39.7527 49.6229 39.677 49.8257 39.6103V39.2581C49.6243 38.9567 49.3805 38.6122 49.0943 38.2246C48.8289 37.8619 48.5187 37.5343 48.1712 37.2494L48.1608 37.241C47.287 36.4686 46.3819 35.7213 45.4456 34.9989C44.5678 34.3169 43.6561 33.6798 42.7138 33.0901L42.5721 33.0068C42.0286 32.6516 41.4531 32.3481 40.853 32.1003L40.7821 32.0753C40.1598 31.8225 39.5464 31.5454 38.9421 31.2439C38.7245 31.1373 38.496 31.0542 38.2607 30.9959L38.2378 30.9918C38.0028 30.945 37.7901 30.8211 37.6335 30.6396L37.6315 30.6375C37.3358 30.2451 37.0875 29.8191 36.8917 29.3685L36.875 29.3268C36.6736 28.8559 36.4555 28.4037 36.2207 27.9703C35.7165 26.9951 35.2289 26.0039 34.7579 24.9967C34.287 23.9896 33.8348 22.981 33.4014 21.9711C33.0999 21.2987 32.8228 20.6271 32.57 19.9561C32.3143 19.2721 31.9925 18.6147 31.6093 17.9932L31.6364 18.0411C30.8061 16.6174 29.8794 15.2522 28.8629 13.9548L28.9213 14.034C27.9911 12.856 26.9749 11.7485 25.881 10.7208L25.8644 10.7062C24.7886 9.69687 23.6529 8.75329 22.4636 7.8806L22.3615 7.80767C21.1168 6.90331 19.7554 6.01284 18.2773 5.13626C17.649 4.7698 16.972 4.4941 16.2665 4.31734L16.2123 4.30484L13.8931 3.72555L12.5824 3.62552C12.1462 3.59218 11.7093 3.57551 11.2717 3.57551C10.9766 3.42107 10.705 3.22531 10.4652 2.99414C10.2335 2.77368 9.98778 2.56835 9.72966 2.37943L9.70883 2.36484C8.35525 1.58376 6.92962 0.934794 5.45167 0.426926L5.27455 0.372747C4.90698 0.162456 4.49682 0.0375361 4.07444 0.00723695C3.65205 -0.0230622 3.22826 0.0420355 2.83444 0.19771L2.8532 0.191459C2.4654 0.343536 2.11589 0.579235 1.82956 0.881774C1.54323 1.18431 1.32711 1.54625 1.1966 1.94183L1.19034 1.96267C0.969219 2.49368 0.897378 3.07501 0.982579 3.64388C1.06778 4.21274 1.30679 4.74752 1.67378 5.19044L1.66961 5.18419C2.42533 6.19135 3.00462 6.98319 3.40748 7.5597C3.70894 7.96395 4.02011 8.38418 4.34102 8.82038C4.63483 9.21213 4.8953 9.66014 5.10576 10.1332L5.12243 10.1769C5.23912 10.4249 5.34123 10.7208 5.41624 11.025L5.4225 11.0584C5.48918 11.3445 5.57322 11.6557 5.67463 11.9919C5.97609 12.7643 6.26156 13.5561 6.53107 14.3674C6.82488 15.253 7.14995 16.0032 7.52711 16.7179L7.48752 16.6346C7.68895 17.0041 7.89108 17.3653 8.0939 17.7181C8.29672 18.071 8.51482 18.4155 8.74821 18.7517C8.88055 18.9514 9.05126 19.1228 9.2504 19.2559L9.25665 19.2601C9.361 19.335 9.44694 19.4326 9.50796 19.5456C9.56897 19.6586 9.60346 19.784 9.60881 19.9123V19.9144C9.36295 20.2796 9.20792 20.6983 9.15663 21.1355L9.15454 21.148C9.08917 21.6389 8.98252 22.1233 8.83572 22.5962L8.85239 22.5337C8.36222 24.0344 8.1153 25.6039 8.12099 27.1826C8.12099 27.7202 8.14808 28.2495 8.20434 28.7726L8.19809 28.708C8.32311 30.7042 8.92533 32.5379 9.89011 34.1258L9.86094 34.0737C10.2714 34.6884 10.7111 35.2239 11.1966 35.7136C11.4787 36.0309 11.8587 36.2448 12.2762 36.3215C12.6938 36.3981 13.125 36.3331 13.5013 36.1366L13.4909 36.1408C13.852 36.0135 14.167 35.7817 14.396 35.4748C14.6249 35.1679 14.7574 34.7999 14.7766 34.4175V34.4133C14.8766 33.4256 15.0266 32.5421 15.2329 31.6794L15.2058 31.819C15.2586 31.6785 15.2855 31.5295 15.285 31.3794L15.2808 31.2856V31.2898C15.2642 31.1383 15.3566 30.9953 15.558 30.8605V30.9605C15.7594 31.4315 15.9692 31.9017 16.1873 32.3712C16.4054 32.8408 16.6318 33.311 16.8666 33.782C17.4813 34.7176 18.1335 35.5344 18.8504 36.2867L18.8441 36.2804C19.5572 37.0504 20.3437 37.749 21.1925 38.3663L21.2384 38.3975C21.6801 38.7351 22.0677 39.0998 22.4178 39.4978L22.4261 39.5061C22.7554 39.8937 23.1492 40.2125 23.593 40.4521L23.6139 40.4626V40.4125H23.7139C23.6348 40.2356 23.5041 40.0867 23.3388 39.9854L23.3347 39.9833C23.1818 39.899 23.0349 39.8043 22.895 39.6999L22.9054 39.7061C22.6039 39.4047 22.2928 39.0685 21.9719 38.6976C21.651 38.3267 21.3571 37.9738 21.0904 37.639C20.3847 36.6638 19.7117 35.6449 19.0712 34.5821C18.4308 33.5194 17.8258 32.4393 17.2563 31.3419C16.9868 30.8042 16.7263 30.25 16.4749 29.679C16.2234 29.108 15.9796 28.5538 15.7434 28.0161C15.6365 27.7977 15.5688 27.5621 15.5434 27.3202V27.3097C15.5378 27.1953 15.5026 27.0842 15.4412 26.9875C15.3799 26.8907 15.2944 26.8115 15.1933 26.7575L15.1892 26.7555C14.9506 27.1656 14.6653 27.5467 14.339 27.8911L14.3411 27.889C14.0064 28.2417 13.7369 28.6509 13.5451 29.0976L13.5346 29.1247C13.2227 29.8943 13.02 30.7037 12.9324 31.5294L12.9283 31.569C12.8282 32.4595 12.7275 33.3749 12.6261 34.3154L12.5261 34.3654L12.4761 34.4154C12.2152 34.3631 11.9694 34.253 11.7567 34.0933C11.5439 33.9336 11.3697 33.7282 11.2467 33.4923L11.2425 33.4819C10.9897 32.9943 10.7632 32.515 10.5632 32.0441C10.0173 30.6159 9.71921 29.105 9.68174 27.5765V27.5577C9.57351 25.9245 9.77573 24.2855 10.2777 22.7275L10.2527 22.8192C10.3527 22.4497 10.5708 21.8273 10.907 20.9521C11.2432 20.077 11.3106 19.472 11.1091 19.1372C11.0097 18.8058 10.8182 18.5095 10.5569 18.2828L10.5548 18.2807C10.3058 18.065 10.0725 17.8317 9.85678 17.5827L9.85052 17.5743C9.61575 17.2354 9.38931 16.8742 9.17121 16.4908C8.95311 16.1074 8.76001 15.7295 8.59192 15.3572C8.2039 14.439 7.87401 13.4974 7.60421 12.5378L7.55837 12.3524C7.26188 11.2802 6.88146 10.233 6.42063 9.22047L6.4748 9.35383C6.25922 8.85904 5.98647 8.39117 5.66213 7.95978L5.67463 7.97645C5.33567 7.52358 5.03283 7.09501 4.76611 6.69076C4.42715 6.25456 4.09096 5.83433 3.75756 5.43008C3.41013 5.00928 3.11228 4.54992 2.86987 4.06103L2.85111 4.01936C2.7445 3.80168 2.66137 3.57326 2.60315 3.33796L2.59898 3.31504C2.56318 3.19666 2.55377 3.07188 2.57141 2.94947C2.58905 2.82706 2.63331 2.71001 2.70108 2.60656L2.699 2.61072C2.72128 2.49805 2.77387 2.39358 2.85111 2.30858C2.93548 2.23317 3.03828 2.18141 3.14909 2.15854H3.15326C3.31767 2.05192 3.50667 1.98923 3.70221 1.97646C3.89774 1.96369 4.09329 2.00127 4.27017 2.08561L4.26392 2.08353C4.72026 2.21272 5.08909 2.34192 5.44959 2.48987L5.37457 2.46278C6.01221 2.73228 6.60053 2.99275 7.13953 3.24419C7.76049 3.54009 8.28977 3.85266 8.78988 4.20065L8.75237 4.17564C9.02187 4.34373 9.29068 4.52849 9.55879 4.72993C9.82691 4.93136 10.1124 5.13349 10.4152 5.33631H11.1216C11.6592 5.33631 12.2302 5.36201 12.8345 5.41341C13.445 5.46133 14.0097 5.57594 14.5474 5.75515L14.4973 5.74056C15.4996 6.03854 16.3602 6.3907 17.1771 6.8137L17.0917 6.77411C17.9154 7.19365 18.6969 7.63888 19.4359 8.10981C20.6632 8.87456 21.7239 9.65806 22.722 10.5145L22.6866 10.4853C23.7285 11.3772 24.6745 12.292 25.5622 13.2588L25.583 13.2838C26.4499 14.2299 27.2772 15.2572 28.0336 16.3345L28.0982 16.4324C28.7941 17.416 29.4964 18.5537 30.1278 19.7331L30.2153 19.9102C30.4013 20.2718 30.5642 20.6449 30.7029 21.0272L30.7258 21.0959C30.8606 21.4821 31.0113 21.878 31.178 22.2837C31.5475 23.1241 31.9434 23.9722 32.3657 24.828C32.7881 25.6837 33.184 26.5158 33.5535 27.3243L34.6621 29.7436C35.0517 30.5896 35.4872 31.3189 35.9936 31.992L35.9707 31.9607C36.3937 32.4129 36.9584 32.7296 37.5919 32.8401L37.6085 32.8422C38.3754 33.0339 39.0213 33.2506 39.6465 33.5069L39.5485 33.4715C39.8465 33.6069 40.2299 33.7507 40.6238 33.8778L40.7071 33.9007C41.1489 34.0362 41.5323 34.2154 41.8844 34.4404L41.8657 34.43C42.5471 34.8113 43.1243 35.1864 43.6744 35.5948L43.6306 35.5636C44.2016 35.9831 44.7726 36.379 45.3435 36.7513C45.613 36.9528 46.0652 37.2466 46.7001 37.6328C47.3349 38.019 47.6711 38.3802 47.7086 38.7163C46.4319 38.6721 45.1537 38.7327 43.8869 38.8976L44.0036 38.8851C42.9457 39.0225 41.9099 39.2956 40.9217 39.6978L41.0051 39.6686C40.7432 39.7797 40.4728 39.8696 40.1966 39.9374L40.157 39.9458C40.0135 39.9664 39.8809 40.0344 39.7805 40.139C39.6801 40.2436 39.6175 40.3787 39.6027 40.523V40.5251C39.7298 40.6834 39.8319 40.8668 39.9007 41.0668L39.9049 41.0793C39.9757 41.2919 40.0611 41.4753 40.1653 41.6461L40.1591 41.6336C40.407 42.0733 40.6738 42.4526 40.9738 42.8026L40.9655 42.7922C41.2593 43.1548 41.5906 43.4694 41.9574 43.7382L41.972 43.7487C42.3109 44.0182 42.6638 44.2953 43.0305 44.5801C43.366 44.8427 43.7453 45.101 44.1391 45.3344L44.1891 45.3615C44.7809 45.7241 45.4685 46.07 46.1854 46.3596L46.2812 46.393C47.0605 46.7055 47.7294 47.0681 48.3504 47.4995L48.3171 47.4765C48.7213 47.7113 49.1242 47.9718 49.5257 48.258C49.9271 48.5441 50.3133 48.8213 50.6842 49.0894C50.8363 49.2394 50.9697 49.4061 51.0822 49.5874L51.0885 49.5978C51.2806 49.8195 51.5477 49.9627 51.8386 50H51.8449V49.9C51.6606 49.7605 51.5262 49.5654 51.4615 49.3436L51.4594 49.3353C51.4117 49.1347 51.333 48.9427 51.226 48.7664L51.2302 48.7747L51.2385 48.7831ZM12.5303 8.76412C12.2608 8.76412 12.0086 8.77246 11.7739 8.78913C11.5448 8.80386 11.3186 8.84798 11.1008 8.9204L11.1195 8.91415V8.96416H11.2196C11.3543 9.1656 11.5238 9.39203 11.728 9.64348C11.9322 9.89492 12.117 10.1387 12.2823 10.3749L13.0887 12.0377L13.1887 11.9877C13.4234 11.8188 13.6055 11.5869 13.7138 11.3188L13.718 11.3084C13.8264 11.0188 13.8889 10.6812 13.8889 10.3311L13.8868 10.2186V10.2248C13.7923 10.133 13.716 10.0241 13.6618 9.90395L13.6597 9.8977L13.4909 9.51845C13.3828 9.34583 13.2282 9.20717 13.045 9.11836L13.0387 9.11628C12.8515 9.02687 12.6798 8.90797 12.5303 8.76412Z" fill="#0C1F39"/>
</svg>
