<svg width="45" height="25" viewBox="0 0 45 25" fill="none" xmlns="http://www.w3.org/2000/svg">
<path d="M13.4844 4.55L22.1672 8.84219V15.8234L13.4844 11.2531V4.55Z" fill="#6483C0"/>
<path d="M22.4579 16.3016L13.1985 11.4266V4.09375L22.4579 8.6625V16.3016ZM13.7735 11.0781L21.8797 15.3438V9.02031L13.7735 5.01406V11.0781Z" fill="#0C1F39"/>
<path d="M22.7249 8.84219V15.8234L30.4499 11.9281V4.95938L22.7249 8.84219Z" fill="#6483C0"/>
<path d="M22.4358 16.2922V8.66406L30.7374 4.49219V12.1063L22.4358 16.2922ZM23.0124 9.01875V15.3547L30.1608 11.75V5.42656L23.0124 9.01875Z" fill="#0C1F39"/>
<path d="M13.8687 4.08907L22.4358 8.43751L30.0858 4.50626L21.7968 0.326569L13.8687 4.08907Z" fill="#6483C0"/>
<path d="M22.4375 8.7625L13.2188 4.075L21.8125 0L30.7328 4.49844L22.4375 8.7625ZM14.5234 4.09375L22.4359 8.10937L29.4516 4.50313L21.7953 0.642186L14.5234 4.09375Z" fill="#0C1F39"/>
<path d="M26.7656 11.9516L35.45 16.2422V23.2234L26.7656 18.6531V11.9516Z" fill="#952781"/>
<path d="M35.7391 23.7016L26.4797 18.8266V11.4828L35.7391 16.0625V23.7016ZM27.0563 18.4781L35.1625 22.7453V16.4203L27.0563 12.4141V18.4781Z" fill="#0C1F39"/>
<path d="M36.0061 16.2422V23.2234L43.7311 19.3281V12.3594L36.0061 16.2422Z" fill="#952781"/>
<path d="M35.7188 23.6922V16.0641L44.0203 11.8922V19.5062L35.7188 23.6922ZM36.2953 16.4187V22.7547L43.4438 19.1484V12.8266L36.2953 16.4187Z" fill="#0C1F39"/>
<path d="M27.1499 11.5094L35.7187 15.8578L43.3687 11.925L35.214 8.07187L27.1499 11.5094Z" fill="#952781"/>
<path d="M35.7187 16.1813L26.4688 11.4859L35.2188 7.75626L44.0203 11.9141L35.7187 16.1813ZM27.8328 11.5313L35.7172 15.5328L42.7156 11.9391L35.2062 8.39219L27.8328 11.5313Z" fill="#0C1F39"/>
<path d="M0.567139 11.4312L9.25151 15.7234V22.7047L0.567139 18.1344V11.4312Z" fill="#D87B30"/>
<path d="M9.53892 23.1828L0.279541 18.3125V10.9688L9.53892 15.5453V23.1828ZM0.856103 17.9594L8.96235 22.2266V15.9016L0.856103 11.8953V17.9594Z" fill="#0C1F39"/>
<path d="M9.80786 15.7234V22.7047L17.5329 18.8094V11.8406L9.80786 15.7234Z" fill="#D87B30"/>
<path d="M9.52026 23.1734V15.5453L17.8218 11.3734V18.9875L9.52026 23.1734ZM10.0968 15.9V22.2359L17.2453 18.625V12.3078L10.0968 15.9Z" fill="#0C1F39"/>
<path d="M0.951416 10.9891L9.52017 15.3391L17.1702 11.4063L9.01548 7.55313L0.951416 10.9891Z" fill="#D87B30"/>
<path d="M9.52026 15.6562L0.270264 10.9687L9.02026 7.23906L17.8203 11.3969L9.52026 15.6562ZM1.63433 11.0125L9.5187 15.0141L16.5171 11.4203L9.00776 7.87343L1.63433 11.0125Z" fill="#0C1F39"/>
<path d="M14.1375 12.6812L22.8203 16.9719V23.9547L14.1375 19.3828V12.6812Z" fill="#E0D400"/>
<path d="M23.1092 24.4312L13.8499 19.5625V12.2188L23.1092 16.7953V24.4312ZM14.4264 19.2094L22.5327 23.4766V17.1516L14.4264 13.1453V19.2094Z" fill="#0C1F39"/>
<path d="M23.3782 16.9719V23.9547L31.1032 20.0578V13.0891L23.3782 16.9719Z" fill="#E0D400"/>
<path d="M23.0828 24.4234V16.7953L31.3843 12.6234V20.2375L23.0828 24.4234ZM23.6593 17.15V23.4859L30.8156 19.875V13.5578L23.6593 17.15Z" fill="#0C1F39"/>
<path d="M14.5217 12.2203L23.0905 16.5687L30.7405 12.6359L22.4514 8.45781L14.5217 12.2203Z" fill="#E0D400"/>
<path d="M23.0906 16.8922L13.8718 12.2047L22.4656 8.12968L31.3859 12.6281L23.0906 16.8922ZM15.1765 12.2281L23.089 16.2437L30.1046 12.6375L22.4484 8.77656L15.1765 12.2281Z" fill="#0C1F39"/>
</svg>
