<svg width="50" height="49" viewBox="0 0 50 49" fill="none" xmlns="http://www.w3.org/2000/svg">
<path d="M1.11165 17.0889C1.11165 17.0889 -0.0806834 16.2171 1.35053 15.0574L4.68866 12.0398C4.68866 12.0398 5.64212 11.0251 6.65275 11.9092L37.4432 35.4741V46.7728C37.4432 46.7728 37.4289 48.549 35.1769 48.353L1.10961 17.0868L1.11165 17.0889Z" fill="#0C1F39"/>
<path d="M9.04967 24.3715L1.11165 31.6644C1.11165 31.6644 0.294984 32.2769 1.11165 33.3733L4.79687 36.7624C4.79687 36.7624 5.67275 37.7118 6.96512 36.6297L15.3789 30.1821L9.04967 24.3715ZM22.982 24.4307L37.5392 13.1975L37.4432 1.95806C37.4432 1.95806 36.8205 -0.496027 34.7482 0.782059L15.3789 18.5997L22.982 24.4307Z" fill="#0C1F39"/>
<path d="M35.1749 48.3673C36.0202 49.2411 37.0451 48.9553 37.0451 48.9553L48.3886 43.306C49.8402 42.3056 49.6361 41.0642 49.6361 41.0642V7.32562C49.6361 5.84336 48.1354 5.3309 48.1354 5.3309L38.3027 0.5391C36.1549 -0.802278 34.7482 0.782059 34.7482 0.782059C34.7482 0.782059 36.5571 -0.534819 37.4432 1.95806L37.4432 46.5686C37.4432 46.8748 37.3779 47.175 37.2492 47.4465C36.9899 47.9753 36.4285 48.4673 35.081 48.2632L35.1749 48.3673Z" fill="#0C1F39"/>
</svg>